<svg xmlns="http://www.w3.org/2000/svg" width="82" height="82" viewBox="0 0 82 82">
  <g id="Grupo_1109368" data-name="Grupo 1109368" transform="translate(-527.788 -2627)">
    <circle id="Elipse_11684" data-name="Elipse 11684" cx="41" cy="41" r="41" transform="translate(527.788 2627)" fill="#9ec9ff"/>
    <g id="plato" transform="translate(536.788 2636)">
      <path id="Trazado_899926" data-name="Trazado 899926" d="M40.94,10C24.269,10,10,24.269,10,40.94a30.356,30.356,0,0,0,4.416,15.092H67.463A30.356,30.356,0,0,0,71.879,40.94C71.879,24.269,57.61,10,40.94,10Z" transform="translate(-8.742 -8.742)" fill="#cef"/>
      <path id="Trazado_899927" data-name="Trazado 899927" d="M71.879,111.108H57.8a22.886,22.886,0,0,0,6.156-15.092A23.315,23.315,0,0,0,40.94,73,23.315,23.315,0,0,0,17.924,96.016a22.886,22.886,0,0,0,6.156,15.092H10a18.674,18.674,0,0,0,14.855,7.924H10a18.674,18.674,0,0,0,14.855,7.924h32.17a18.671,18.671,0,0,0,14.855-7.924H57.024A18.67,18.67,0,0,0,71.879,111.108Z" transform="translate(-8.742 -63.819)" fill="#fff"/>
      <path id="Trazado_899928" data-name="Trazado 899928" d="M247.258,106a1.258,1.258,0,1,0,1.258,1.258A1.258,1.258,0,0,0,247.258,106Z" transform="translate(-215.06 -92.668)"/>
      <path id="Trazado_899929" data-name="Trazado 899929" d="M1.258,46.032A1.258,1.258,0,0,0,.211,47.987a19.078,19.078,0,0,0,6.6,5.968H1.258A1.258,1.258,0,0,0,.211,55.911a19.851,19.851,0,0,0,15.9,8.483h32.17a20,20,0,0,0,15.9-8.483,1.258,1.258,0,0,0-1.046-1.956H57.563a18.99,18.99,0,0,0,6.62-5.968,1.258,1.258,0,0,0-1.046-1.956h-2.3A30.383,30.383,0,0,0,64.394,32.2C64.394,14.834,49.571,0,32.2,0,14.852,0,0,14.8,0,32.2A30.383,30.383,0,0,0,3.559,46.032ZM48.282,61.879H16.112A17.665,17.665,0,0,1,3.875,56.458h56.65A17.588,17.588,0,0,1,48.282,61.879Zm0-7.924H16.112A17.665,17.665,0,0,1,3.875,48.535h56.65A17.588,17.588,0,0,1,48.282,53.955ZM15.908,46.032A21.451,21.451,0,0,1,10.439,32.2,22.05,22.05,0,0,1,32.2,10.439,22.05,22.05,0,0,1,53.955,32.2a21.451,21.451,0,0,1-5.469,13.835ZM2.515,32.2A30.079,30.079,0,0,1,32.2,2.515,30.079,30.079,0,0,1,61.879,32.2a28.529,28.529,0,0,1-3.892,13.835H51.7A23.491,23.491,0,0,0,56.471,32.2,24.6,24.6,0,0,0,32.2,7.924,24.6,24.6,0,0,0,7.924,32.2,23.491,23.491,0,0,0,12.7,46.032H6.408A28.528,28.528,0,0,1,2.515,32.2Z"/>
      <path id="Trazado_899930" data-name="Trazado 899930" d="M287.212,111.749a1.258,1.258,0,1,0-.712,2.412,16.45,16.45,0,0,1,11.726,15.685,1.258,1.258,0,1,0,2.515,0A18.9,18.9,0,0,0,287.212,111.749Z" transform="translate(-249.678 -97.649)"/>
    </g>
  </g>
</svg>
