<svg xmlns="http://www.w3.org/2000/svg" width="82" height="82" viewBox="0 0 82 82">
  <g id="Grupo_1109370" data-name="Grupo 1109370" transform="translate(-842.788 -2627)">
    <circle id="Elipse_11685" data-name="Elipse 11685" cx="41" cy="41" r="41" transform="translate(842.788 2627)" fill="#9ec9ff"/>
    <g id="camarero" transform="translate(839.16 2635)">
      <path id="Trazado_899931" data-name="Trazado 899931" d="M344.869,246.95v2.495a1.767,1.767,0,0,0,.836,1.5l-3.582,9.881,4.524,1.64,4.079-11.253h1.389A2.889,2.889,0,0,0,355,248.325V246.95Z" transform="translate(-286.649 -215.492)" fill="#ffcdbe"/>
      <path id="Trazado_899932" data-name="Trazado 899932" d="M333.144,215.792H311.323a.561.561,0,0,0-.561.561v1.158a2.25,2.25,0,0,0,2.25,2.25h18.444a2.25,2.25,0,0,0,2.25-2.25v-1.158A.561.561,0,0,0,333.144,215.792Z" transform="translate(-259.283 -188.303)" fill="#aa3584"/>
      <path id="Trazado_899933" data-name="Trazado 899933" d="M453.965,215.792h-3.056a.561.561,0,0,1,.561.561v1.158a2.25,2.25,0,0,1-2.25,2.25h3.056a2.25,2.25,0,0,0,2.25-2.25v-1.158A.561.561,0,0,0,453.965,215.792Z" transform="translate(-380.104 -188.303)" fill="#902d72"/>
      <path id="Trazado_899934" data-name="Trazado 899934" d="M368.847,84.928a4.667,4.667,0,0,1-4.667-4.667V73.988a.392.392,0,0,1,.392-.392h8.551a.392.392,0,0,1,.392.392v6.274A4.667,4.667,0,0,1,368.847,84.928Z" transform="translate(-305.897 -64.221)" fill="#75cff9"/>
      <path id="Trazado_899935" data-name="Trazado 899935" d="M395.725,73.6H392.99a.392.392,0,0,1,.392.392v6.274a4.669,4.669,0,0,1-3.3,4.463,4.669,4.669,0,0,0,6.035-4.463V73.988A.392.392,0,0,0,395.725,73.6Z" transform="translate(-328.499 -64.221)" fill="#5fa7ee"/>
      <path id="Trazado_899936" data-name="Trazado 899936" d="M364.18,116.715v1.172a4.667,4.667,0,1,0,9.334,0v-1.172Z" transform="translate(-305.897 -101.847)" fill="#744c9e"/>
      <path id="Trazado_899937" data-name="Trazado 899937" d="M393.381,116.714v1.172a4.669,4.669,0,0,1-3.3,4.463,4.7,4.7,0,0,0,1.366.2h0a4.665,4.665,0,0,0,4.667-4.667v-1.172h-2.735Z" transform="translate(-328.499 -101.846)" fill="#644187"/>
      <path id="Trazado_899938" data-name="Trazado 899938" d="M62.921,210.281l-3.445,9.5-2.34-6.9a10.855,10.855,0,0,0-6.269-6.6l-5.308-2.11v-7.313h-7.33v7.313c-7.681,0-13.375,11.1-16.262,15.745a5.307,5.307,0,0,0-.838,2.8,5.081,5.081,0,0,0,5.081,5.081h4.033v4.49h23.3V224.66l1.518,4.026a5.055,5.055,0,0,0,5.531,3.208,3.946,3.946,0,0,0,3.71-2.6l5.931-16.36a.637.637,0,0,0-.382-.816L63.737,209.9A.637.637,0,0,0,62.921,210.281Z" transform="translate(-6.545 -171.79)" fill="#ddebfd"/>
      <path id="Trazado_899939" data-name="Trazado 899939" d="M314.716,310.953l-6.189,17.071A4.067,4.067,0,0,1,304.7,330.7a5.232,5.232,0,0,1-.706.064,5.045,5.045,0,0,0,3.432.676,3.946,3.946,0,0,0,3.71-2.6l5.931-16.36a.637.637,0,0,0-.382-.816Z" transform="translate(-253.381 -271.342)" fill="#bed9fd"/>
      <path id="Trazado_899940" data-name="Trazado 899940" d="M145.455,205.245q4.929,5,9.856,0v-.561l-1.263-.5v-7.313h-7.33v7.313a8.062,8.062,0,0,0-1.263.1v.962Z" transform="translate(-115.034 -171.79)" fill="#ffcdbe"/>
      <path id="Trazado_899941" data-name="Trazado 899941" d="M155.372,196.869v4.9a8.961,8.961,0,0,0,4.538,1.976,6.6,6.6,0,0,0,2.792-.87v-6.01Z" transform="translate(-123.688 -171.79)" fill="#ebae9d"/>
      <path id="Trazado_899942" data-name="Trazado 899942" d="M115.982,272.906V285.7a.653.653,0,0,1-.653.653h-22a.653.653,0,0,1-.653-.653v-12.79l1.908-1.457a6.494,6.494,0,0,0,2.461-6.276l-1.564-9.02a9.809,9.809,0,0,1,4.522-1.65l3.729,9.633a.637.637,0,0,0,1.188,0l3.633-9.437,4.558,1.812-1.5,8.664a6.5,6.5,0,0,0,2.461,6.276Z" transform="translate(-68.98 -222.083)" fill="#26447e"/>
      <path id="Trazado_899943" data-name="Trazado 899943" d="M178.252,373.139h-1.027v-1.014a1.014,1.014,0,0,0-1.014-1.014h-1.69a1.085,1.085,0,0,0-1.085,1.085v7.389h4.814a2.913,2.913,0,0,0,2.913-2.913v-.62A2.913,2.913,0,0,0,178.252,373.139Z" transform="translate(-139.452 -323.837)" fill="#ffcdbe"/>
      <path id="Trazado_899944" data-name="Trazado 899944" d="M65.609,397.565H78.856a.261.261,0,0,0,.261-.261v-15.35h-11.1a2.67,2.67,0,0,0-2.67,2.67V397.3A.261.261,0,0,0,65.609,397.565Z" transform="translate(-45.132 -333.299)" fill="#75cff9"/>
      <path id="Trazado_899945" data-name="Trazado 899945" d="M103.748,17.389c-.287-2.089-2.727-3.31-3.9-3.529C98.233,11.328,92.7,7.716,87.593,7.5a.339.339,0,0,0-.3.517,14.951,14.951,0,0,1,1.265,2.364.338.338,0,0,1-.43.443,16.188,16.188,0,0,0-10.257-.359.34.34,0,0,0-.143.544,42.562,42.562,0,0,0,3.088,3.144,10.651,10.651,0,0,0,.805,12.591l19.326.544S104.135,20.207,103.748,17.389Z" transform="translate(-55.862 -6.544)" fill="#26447e"/>
      <path id="Trazado_899946" data-name="Trazado 899946" d="M169.5,17.389c-.287-2.089-2.727-3.31-3.9-3.529-1.617-2.531-7.152-6.143-12.258-6.36a.338.338,0,0,0-.334.437c4.176,1.072,8.105,3.857,9.425,5.923,1.171.22,3.611,1.44,3.9,3.529.361,2.634-2.4,8.992-2.761,9.811l3.127.088s3.187-7.081,2.8-9.9Z" transform="translate(-121.615 -6.544)" fill="#20396b"/>
      <g id="Grupo_1109369" data-name="Grupo 1109369" transform="translate(23.698 17.795)">
        <path id="Trazado_899947" data-name="Trazado 899947" d="M224.631,144.375H219.87V139.7h4.761a2.34,2.34,0,0,1,0,4.68Z" transform="translate(-203.667 -139.695)" fill="#ebae9d"/>
        <path id="Trazado_899948" data-name="Trazado 899948" d="M95.016,144.375h4.761V139.7H95.016a2.34,2.34,0,0,0,0,4.68Z" transform="translate(-92.676 -139.695)" fill="#ebae9d"/>
      </g>
      <path id="Trazado_899949" data-name="Trazado 899949" d="M141.15,101.313c-.917,1.787-4.517,4.093-6.525,4.093s-5.608-2.306-6.523-4.093c-.693-1.349-.781-5.539-.659-9.018a18.082,18.082,0,0,0,9.637-4.825h2.906a1.631,1.631,0,0,1,1.627,1.487C141.914,92.355,142.094,99.475,141.15,101.313Z" transform="translate(-99.276 -76.327)" fill="#ffcdbe"/>
      <path id="Trazado_899950" data-name="Trazado 899950" d="M73.861,26.534H63.906V21.581a5.631,5.631,0,0,0,4.667-5.54V9.767A1.349,1.349,0,0,0,67.226,8.42H58.675a1.349,1.349,0,0,0-1.347,1.347v6.274A5.631,5.631,0,0,0,62,21.58v4.953H52.04a1.518,1.518,0,0,0-1.516,1.517v1.158a3.209,3.209,0,0,0,3.205,3.205h3.536v1.539a2.708,2.708,0,0,0,.67,1.79l-.521,1.436a1.589,1.589,0,0,0-1.935.987L52.96,45.109,51.5,40.793a11.79,11.79,0,0,0-6.82-7.179l-4.7-1.87V28.227a8.593,8.593,0,0,0,2.753-2.8,6.815,6.815,0,0,0,.534-1.992h1.4a3.293,3.293,0,0,0,2.551-5.379c1.275-3.412,1.821-5.879,1.621-7.337a4.715,4.715,0,0,0-1.991-3.1,7.215,7.215,0,0,0-2.274-1.141C42.616,3.814,37.074.226,31.77,0a1.294,1.294,0,0,0-1.153,1.972c.237.386.426.707.578.978a16.61,16.61,0,0,0-9.5.069,1.3,1.3,0,0,0-.547,2.073c.948,1.089,1.972,2.1,2.592,2.688a11.472,11.472,0,0,0-.358,10.41,3.293,3.293,0,0,0,2.657,5.24h1.4a6.834,6.834,0,0,0,.535,1.991,8.586,8.586,0,0,0,2.753,2.806v3.259c-3.5.367-6.907,2.76-10.391,7.285a.955.955,0,1,0,1.514,1.166,24.813,24.813,0,0,1,3.971-4.2l1.3,7.516A5.568,5.568,0,0,1,25.961,47.7H24.653V44.966a.955.955,0,1,0-1.911,0V47.7a3.629,3.629,0,0,0-3.481,3.622v3.712a4.131,4.131,0,0,1-3.722-4.106,4.37,4.37,0,0,1,.694-2.292c.318-.511,2.315-3.856,3.061-5.023a.955.955,0,0,0-1.61-1.029c-.762,1.192-1.443,2.333-2.045,3.34-.37.62-.72,1.206-1.029,1.7a6.275,6.275,0,0,0-.982,3.3,6.043,6.043,0,0,0,5.633,6.022v1.128a.955.955,0,0,0,1.911,0V51.326a1.716,1.716,0,0,1,1.714-1.714H33.03v13.7h-2.8V58.653a.955.955,0,0,0-1.911,0v4.658H25.88V61.46a.955.955,0,0,0-1.911,0v1.851h-2.8V62.54a.955.955,0,0,0-1.911,0v1.466a1.218,1.218,0,0,0,1.216,1.216H46.348a1.61,1.61,0,0,0,1.609-1.608V57.96a6.043,6.043,0,0,0,5.3,3.162A6.006,6.006,0,0,0,58.9,57.161l3.137-8.654a.955.955,0,0,0-1.8-.651L57.1,56.51a4.1,4.1,0,0,1-7.69.049L47.957,52.7V50.823c0-.007,0-.013,0-.019V44.966a.955.955,0,0,0-1.911,0v3.927l-.374-.285a5.528,5.528,0,0,1-2.1-5.354L44.865,35.8a9.879,9.879,0,0,1,4.821,5.607l2.233,6.578-.816,2.25a.955.955,0,1,0,1.8.651l3.473-9.579v0l.793-2.188,5.518,2-.924,2.547a.955.955,0,0,0,1.8.652l1.033-2.847a1.589,1.589,0,0,0-.855-2l1.012-2.793h.719a3.848,3.848,0,0,0,3.845-3.843v-.42h2.863a3.209,3.209,0,0,0,3.205-3.205V28.05a1.518,1.518,0,0,0-1.517-1.516Zm-7.2-16.2v3.582H59.239V10.331Zm-7.423,5.71v-.217h7.423v.217a3.712,3.712,0,1,1-7.423,0ZM44.661,21.52H43.448c.056-.885.079-1.83.082-2.768H44.66a1.384,1.384,0,1,1,0,2.768ZM23.228,4.551a16.061,16.061,0,0,1,8.717.629,1.293,1.293,0,0,0,1.638-1.694,11.57,11.57,0,0,0-.719-1.464c4.476.642,8.98,3.717,10.318,5.81a.955.955,0,0,0,.629.425c.955.179,2.918,1.191,3.127,2.719.143,1.046-.351,3.2-1.366,6a3.283,3.283,0,0,0-.913-.13H43.508c-.045-1.874-.151-3.512-.221-4.295a2.572,2.572,0,0,0-2.578-2.358H37.8a.955.955,0,0,0-.664.269,17.132,17.132,0,0,1-9.123,4.569.955.955,0,0,0-.8.91c-.01.282-.019.586-.027.906H26.037a3.28,3.28,0,0,0-1.087.185,9.652,9.652,0,0,1,.786-8.868A.955.955,0,0,0,25.6,6.9c-.014-.012-1.172-1.064-2.367-2.351ZM26.037,21.52a1.383,1.383,0,0,1-.893-2.439l0,0a1.376,1.376,0,0,1,.89-.326h1.127c0,.913.026,1.864.083,2.768H26.037Zm3.638,3.03a6.887,6.887,0,0,1-.439-2.105.971.971,0,0,0-.012-.126,44.334,44.334,0,0,1-.145-4.5c0-.006,0-.012,0-.018s0-.007,0-.011q.006-.5.019-1.016A19.1,19.1,0,0,0,38.184,12.1h2.525a.672.672,0,0,1,.675.616c.156,1.754.231,3.426.247,4.937a.884.884,0,0,0,0,.308c.018,3.4-.268,5.924-.61,6.591A7.416,7.416,0,0,1,38.505,26.9l-.027.017a6.967,6.967,0,0,1-3.13,1.209c-1.616,0-4.9-2.071-5.674-3.574Zm5.674,5.485a6.9,6.9,0,0,0,2.711-.72v3.078a.953.953,0,0,0,.308.7l-.4,1.047a4.4,4.4,0,0,1-5.257-.017l-.392-1.014a.952.952,0,0,0,.324-.716V29.315a6.9,6.9,0,0,0,2.709.719Zm1.642,6.635-1.644,4.27-1.655-4.274a5.919,5.919,0,0,0,3.3,0Zm.782,13.588H38.8a1.96,1.96,0,0,1,1.958,1.958v.62A1.96,1.96,0,0,1,38.8,54.793H34.941V48.359a.129.129,0,0,1,.129-.129h1.69a.058.058,0,0,1,.058.058V49.3A.955.955,0,0,0,37.773,50.258Zm6.739-.13L46.045,51.3V52.87c0,.007,0,.014,0,.021s0,.006,0,.009V63.311H34.941V56.7H38.8a3.873,3.873,0,0,0,3.868-3.868v-.62A3.873,3.873,0,0,0,38.8,48.347h-.071v-.058a1.971,1.971,0,0,0-1.969-1.969H35.07A2.042,2.042,0,0,0,33.141,47.7h-4.9a7.484,7.484,0,0,0,.769-4.773l-1.454-8.387a8.862,8.862,0,0,1,2.85-1.078L33.863,42.4a1.582,1.582,0,0,0,1.485,1.017h0a1.582,1.582,0,0,0,1.485-1.02l3.286-8.536,2.94,1.169-1.369,7.9a7.433,7.433,0,0,0,2.822,7.2ZM67.4,32.834a1.935,1.935,0,0,1-1.934,1.932H64.077a.955.955,0,0,0-.9.63L61.94,38.814l-2.728-.989.742-2.044a.955.955,0,0,0-.391-1.136.814.814,0,0,1-.387-.692V32.414H67.4Zm6.068-3.625A1.3,1.3,0,0,1,72.172,30.5H53.728a1.3,1.3,0,0,1-1.294-1.294v-.764H73.467Z" transform="translate(0 0)"/>
    </g>
  </g>
</svg>
