<svg xmlns="http://www.w3.org/2000/svg" width="85" height="85" viewBox="0 0 85 85">
  <g id="Grupo_1108512" data-name="Grupo 1108512" transform="translate(-285.045 -3161)">
    <circle id="Elipse_11687" data-name="Elipse 11687" cx="42.5" cy="42.5" r="42.5" transform="translate(285.045 3161)" fill="#fff"/>
    <g id="camarera" transform="translate(294.544 3168.084)">
      <g id="Grupo_1108511" data-name="Grupo 1108511" transform="translate(0.882 3.816)">
        <g id="Grupo_1108490" data-name="Grupo 1108490" transform="translate(7.639)">
          <path id="Trazado_899172" data-name="Trazado 899172" d="M91.415,24.47v6.751c0,8.078-6.248,13.109-13.883,13.109S63.649,39.3,63.649,31.221V24.47C63.649,5.176,91.415,5.176,91.415,24.47Z" transform="translate(-63.649 -10)" fill="#c6764c" fill-rule="evenodd"/>
        </g>
        <g id="Grupo_1108491" data-name="Grupo 1108491" transform="translate(7.639 0.003)">
          <path id="Trazado_899173" data-name="Trazado 899173" d="M78.448,44.322c-.3.014-.609.025-.916.025-7.635,0-13.883-5.031-13.883-13.109V24.488c0-10.072,7.566-14.883,14.8-14.44-6.621.408-12.967,5.218-12.967,14.44v6.751C65.481,38.988,71.237,43.933,78.448,44.322Z" transform="translate(-63.649 -10.02)" fill="#ba6d43" fill-rule="evenodd"/>
        </g>
        <g id="Grupo_1108492" data-name="Grupo 1108492" transform="translate(8.982 29.097)">
          <path id="Trazado_899174" data-name="Trazado 899174" d="M91.556,239.119H81.972c-4.263,0-7.748,4.259-7.748,8.467v25.172H99.3V247.587C99.3,243.378,95.815,239.119,91.556,239.119Z" transform="translate(-74.224 -239.119)" fill="#ff656f" fill-rule="evenodd"/>
        </g>
        <g id="Grupo_1108493" data-name="Grupo 1108493" transform="translate(43.474 29)">
          <path id="Trazado_899175" data-name="Trazado 899175" d="M353.256,247.336l1.631-4.493h2.263a2.354,2.354,0,0,0,2.361-2.333v-2.157H345.829v3.469a1.027,1.027,0,0,0,1.029,1.021h.752l-.8,2.211Z" transform="translate(-345.829 -238.353)" fill="#ffbfa8" fill-rule="evenodd"/>
        </g>
        <g id="Grupo_1108494" data-name="Grupo 1108494" transform="translate(29.445 30.926)">
          <path id="Trazado_899176" data-name="Trazado 899176" d="M237.235,253.516c5.394,2.56,7.146,8.81,8.741,14.414l3.6-9.921,8.026,2.845-6.11,16.838a4.29,4.29,0,0,1-5.453,2.546c-2.088-.739-4.993-5.1-6.066-6.394v-3.152C232.519,268.359,236.041,258.774,237.235,253.516Z" transform="translate(-235.354 -253.516)" fill="#e2f0fa" fill-rule="evenodd"/>
        </g>
        <g id="Grupo_1108495" data-name="Grupo 1108495" transform="translate(8.982 29.097)">
          <path id="Trazado_899177" data-name="Trazado 899177" d="M96.567,240.947a7.773,7.773,0,0,0-4.777-1.828L89.162,245.3l-1.175,2.777a1.331,1.331,0,0,1-2.445,0L84.363,245.3l-2.624-6.185a7.756,7.756,0,0,0-4.777,1.828c1.23,5.518,4.672,14.854-2.737,17.177v14.634H99.3V258.124c-7.409-2.323-3.971-11.659-2.737-17.177Z" transform="translate(-74.224 -239.119)" fill="#4d5080" fill-rule="evenodd"/>
        </g>
        <g id="Grupo_1108496" data-name="Grupo 1108496" transform="translate(8.982 29.79)">
          <path id="Trazado_899178" data-name="Trazado 899178" d="M78.753,244.571a7.95,7.95,0,0,0-1.792,1.136c1.23,5.518,4.672,14.854-2.737,17.177v14.634h1.6V263.8C83.421,261.2,80.1,250.9,78.753,244.571Z" transform="translate(-74.224 -244.571)" fill="#434675" fill-rule="evenodd"/>
        </g>
        <g id="Grupo_1108497" data-name="Grupo 1108497" transform="translate(0 30.926)">
          <path id="Trazado_899179" data-name="Trazado 899179" d="M12.482,277.227H18.92v-6.185H12.482v-.35c7.409-2.323,3.967-11.659,2.737-17.177a7.751,7.751,0,0,0-1.241,1.316L4.365,269.326a4.94,4.94,0,0,0-.226,5.222,5.062,5.062,0,0,0,4.544,2.68Z" transform="translate(-3.5 -253.516)" fill="#e2f0fa" fill-rule="evenodd"/>
        </g>
        <g id="Grupo_1108498" data-name="Grupo 1108498" transform="translate(15.42 44.968)">
          <path id="Trazado_899180" data-name="Trazado 899180" d="M124.918,373.761h9.6a3.093,3.093,0,1,0,0-6.185h-.54v-2.232a1.262,1.262,0,0,0-1.266-1.251h-2.646a1.262,1.262,0,0,0-1.266,1.251v2.232h-3.883Z" transform="translate(-124.918 -364.093)" fill="#ffbfa8" fill-rule="evenodd"/>
        </g>
        <g id="Grupo_1108499" data-name="Grupo 1108499" transform="translate(15.419 52.675)">
          <path id="Trazado_899181" data-name="Trazado 899181" d="M124.917,426.739h9.6a3.141,3.141,0,0,0,2.912-1.962H124.917v1.962Z" transform="translate(-124.917 -424.777)" fill="#fcac8f" fill-rule="evenodd"/>
        </g>
        <g id="Grupo_1108500" data-name="Grupo 1108500" transform="translate(4.182 47.814)">
          <path id="Trazado_899182" data-name="Trazado 899182" d="M51.554,386.5H40.437a3.991,3.991,0,0,0-4,3.956v10.967H51.554Z" transform="translate(-36.433 -386.498)" fill="#c5dcf2" fill-rule="evenodd"/>
        </g>
        <g id="Grupo_1108501" data-name="Grupo 1108501" transform="translate(4.182 47.814)">
          <path id="Trazado_899183" data-name="Trazado 899183" d="M40.59,386.5h-.153a3.991,3.991,0,0,0-4,3.956v10.967h1.726V390.137A3.969,3.969,0,0,1,40.59,386.5Z" transform="translate(-36.433 -386.498)" fill="#b5d1eb" fill-rule="evenodd"/>
        </g>
        <g id="Grupo_1108502" data-name="Grupo 1108502" transform="translate(43.474 29)">
          <path id="Trazado_899184" data-name="Trazado 899184" d="M347.179,242.842v-3.379h12.332v-1.111H345.829v3.469a1.027,1.027,0,0,0,1.029,1.021Z" transform="translate(-345.829 -238.352)" fill="#fcac8f" fill-rule="evenodd"/>
        </g>
        <g id="Grupo_1108503" data-name="Grupo 1108503" transform="translate(38.208 10.85)">
          <path id="Trazado_899185" data-name="Trazado 899185" d="M318,95.432v10.48a4.093,4.093,0,0,1-3.832,4.291h-5.971a4.091,4.091,0,0,1-3.832-4.291V95.432Z" transform="translate(-304.36 -95.432)" fill="#e2f0fa" fill-rule="evenodd"/>
        </g>
        <g id="Grupo_1108504" data-name="Grupo 1108504" transform="translate(37.65 25.621)">
          <path id="Trazado_899186" data-name="Trazado 899186" d="M302.6,215.124H322.66a2.625,2.625,0,0,0,2.631-2.6v-.775H299.963v.775A2.628,2.628,0,0,0,302.6,215.124Z" transform="translate(-299.963 -211.745)" fill="#ff656f" fill-rule="evenodd"/>
        </g>
        <g id="Grupo_1108505" data-name="Grupo 1108505" transform="translate(16.496 18.419)">
          <path id="Trazado_899187" data-name="Trazado 899187" d="M143.159,155.036h-9.475v10.675h-.055c-.08,0-.157,0-.234,0l1.551,3.657a5.051,5.051,0,0,0,6.949,0l1.551-3.657c-.08,0-.157,0-.234,0h-.055V155.036Z" transform="translate(-133.396 -155.036)" fill="#ffaf93" fill-rule="evenodd"/>
        </g>
        <g id="Grupo_1108506" data-name="Grupo 1108506" transform="translate(11.544 7.305)">
          <path id="Trazado_899188" data-name="Trazado 899188" d="M104.375,67.518a9.436,9.436,0,0,0,8.281,5.932,6.622,6.622,0,0,0,1.7-.216v5.373a8.729,8.729,0,0,1-3.573,7.227c-5.3,3.916-7.715,3.761-12.81,0A8.72,8.72,0,0,1,94.4,78.607V73.234a6.606,6.606,0,0,0,1.7.216A9.436,9.436,0,0,0,104.375,67.518Z" transform="translate(-94.397 -67.518)" fill="#ffbfa8" fill-rule="evenodd"/>
        </g>
        <g id="Grupo_1108507" data-name="Grupo 1108507" transform="translate(43.811 19.472)">
          <path id="Trazado_899189" data-name="Trazado 899189" d="M367.848,167.764c-.044-2.449-1.715-4.436-3.752-4.436H352.231c-2.033,0-3.7,1.987-3.752,4.436a1.826,1.826,0,0,0,.394,1.208,1.24,1.24,0,0,0,.993.5h16.595a1.235,1.235,0,0,0,.993-.5A1.8,1.8,0,0,0,367.848,167.764Z" transform="translate(-348.479 -163.328)" fill="#fac600" fill-rule="evenodd"/>
        </g>
        <g id="Grupo_1108508" data-name="Grupo 1108508" transform="translate(43.811 21.026)">
          <path id="Trazado_899190" data-name="Trazado 899190" d="M349.411,175.567a5.088,5.088,0,0,0-.931,2.881,1.827,1.827,0,0,0,.394,1.208,1.24,1.24,0,0,0,.993.5h16.595a1.235,1.235,0,0,0,.993-.5,1.809,1.809,0,0,0,.23-.364H350.418a1.332,1.332,0,0,1-1.047-.5,1.758,1.758,0,0,1-.42-1.212A5.056,5.056,0,0,1,349.411,175.567Z" transform="translate(-348.48 -175.567)" fill="#fbc02d" fill-rule="evenodd"/>
        </g>
        <g id="Grupo_1108509" data-name="Grupo 1108509" transform="translate(38.208 10.85)">
          <path id="Trazado_899191" data-name="Trazado 899191" d="M309.955,110.2h-1.763a4.091,4.091,0,0,1-3.832-4.291V95.432h1.763v10.48A4.091,4.091,0,0,0,309.955,110.2Z" transform="translate(-304.36 -95.432)" fill="#d2eafa" fill-rule="evenodd"/>
        </g>
        <g id="Grupo_1108510" data-name="Grupo 1108510" transform="translate(37.65 25.621)">
          <path id="Trazado_899192" data-name="Trazado 899192" d="M302.6,215.123H322.66a2.65,2.65,0,0,0,2.2-1.172,2.675,2.675,0,0,1-.869.144H303.927a2.626,2.626,0,0,1-2.62-2.351h-1.343v.775a2.628,2.628,0,0,0,2.635,2.6Z" transform="translate(-299.963 -211.744)" fill="#ff4756" fill-rule="evenodd"/>
        </g>
      </g>
      <path id="Trazado_899193" data-name="Trazado 899193" d="M18.524,20.391v1.074a.887.887,0,1,1-1.775,0V20.391a.887.887,0,1,1,1.775,0Zm9.87,0a.887.887,0,1,0-1.775,0v1.074a.887.887,0,1,0,1.775,0Zm-3.822,5.247a2.971,2.971,0,0,1-3.889,0A.887.887,0,0,0,19.6,27.044a4.731,4.731,0,0,0,6.056,0,.888.888,0,1,0-1.084-1.406ZM65.4,27.61a2.683,2.683,0,0,1-.588,1.774,2.332,2.332,0,0,1-.533.494V30.1a3.486,3.486,0,0,1-3.482,3.482H58.54v1.261a3.214,3.214,0,0,1-3.209,3.212H53.725l-1.1,3.058a.887.887,0,0,1,.478,1.111L47.091,59a5.077,5.077,0,0,1-6.5,3.072c-1.406-.506-3.007-2.347-4.788-4.624V66.31a.887.887,0,1,1-1.775,0V52.354c-2.792-1.11-4.31-3.378-4.517-6.752-.179-2.935.625-6.184,1.334-9.051.137-.553.268-1.084.385-1.586a6.749,6.749,0,0,0-3.142-1.239l-3.5,8.339a2.189,2.189,0,0,1-4.042,0l-3.5-8.334a6.765,6.765,0,0,0-3.142,1.239c.117.5.247,1.026.383,1.576a33.3,33.3,0,0,1,1.354,8.67,8.1,8.1,0,0,1-1.877,5.342H19.5v-.7a2.137,2.137,0,0,1,2.134-2.134h2.6a2.137,2.137,0,0,1,2.134,2.134v1.352a3.969,3.969,0,0,1-.352,7.922H21.273V66.31a.888.888,0,0,1-.887.888H5.5a.888.888,0,0,1-.887-.888V58.836a5.817,5.817,0,0,1-3.379-2.845,5.884,5.884,0,0,1,.258-6.11l9.464-14.441.027-.038a8.54,8.54,0,0,1,.72-.854,13.478,13.478,0,0,1-3.687-9.6V18.221A15.219,15.219,0,0,1,12.566,6.76a14.527,14.527,0,0,1,10-3.844,14.527,14.527,0,0,1,10,3.844,15.219,15.219,0,0,1,4.552,11.46v6.726a13.508,13.508,0,0,1-3.513,9.418c4.094,2.493,5.935,7.138,7.31,11.722l2.611-7.294a.886.886,0,0,1,1.078-.554l.089-.248a1.908,1.908,0,0,1-1.405-1.838V33.584H41.042A3.484,3.484,0,0,1,37.564,30.1V29.33a.888.888,0,0,1,.887-.888h.807a5.471,5.471,0,0,1-1.148-3.388V14.613A.888.888,0,0,1,39,13.726H52.421a.888.888,0,0,1,.887.888v.047h1.175a3.489,3.489,0,0,1,0,6.978H53.309v.679h7.5c2.472,0,4.529,2.373,4.585,5.29a.032.032,0,0,0,0,0ZM53.309,19.863h1.175a1.714,1.714,0,0,0,0-3.428H53.309ZM21.273,57.352H26.02a2.193,2.193,0,0,0,0-4.387h-.535a.888.888,0,0,1-.887-.888V49.854a.364.364,0,0,0-.359-.359h-2.6a.364.364,0,0,0-.359.359v7.5Zm18.612-32.3a3.171,3.171,0,0,0,2.885,3.388h1.886a2.933,2.933,0,0,1-.108-.836c.056-2.918,2.111-5.29,4.581-5.29h2.4V15.5H39.885ZM9.441,52.329a3.058,3.058,0,0,0-3.054,3.054V65.422H19.5V52.329ZM12.57,36.969l-.135-.545-.008.011L2.976,50.854a4.083,4.083,0,0,0-.181,4.294,4.133,4.133,0,0,0,1.817,1.78V55.384a4.834,4.834,0,0,1,4.725-4.826V46.994a.887.887,0,1,1,1.775,0V50.4C15.329,48.114,13.8,41.953,12.57,36.969Zm11.6,1.511a5.822,5.822,0,0,1-3.2,0l1.216,2.9a.415.415,0,0,0,.767,0Zm2.175-6.454a8.079,8.079,0,0,1-3.774,1.058,8.087,8.087,0,0,1-3.779-1.059v1.267l1.1,2.622a4.036,4.036,0,0,0,5.352,0l1.1-2.624Zm2-3.407a7.881,7.881,0,0,0,3.165-6.49V17.836a7.765,7.765,0,0,1-.787.039,9.962,9.962,0,0,1-8.153-4.857,9.962,9.962,0,0,1-8.153,4.857,7.737,7.737,0,0,1-.783-.039V22.13a7.887,7.887,0,0,0,3.161,6.49c4.806,3.588,6.749,3.588,11.549,0ZM32.083,33.4a11.74,11.74,0,0,0,3.268-8.449V18.221A13.494,13.494,0,0,0,31.36,8.055a12.759,12.759,0,0,0-8.79-3.364c-6.156,0-12.781,4.234-12.781,13.53v6.726a11.74,11.74,0,0,0,3.268,8.45,8.54,8.54,0,0,1,3.961-1.45v-.991c-.413-.278-.84-.581-1.285-.914a9.623,9.623,0,0,1-3.874-7.911V16.776a.888.888,0,0,1,1.117-.857,5.591,5.591,0,0,0,1.442.182,8.362,8.362,0,0,0,7.331-5.356.888.888,0,0,1,1.642,0A8.362,8.362,0,0,0,30.723,16.1a5.6,5.6,0,0,0,1.445-.182.888.888,0,0,1,1.117.857V22.13a9.617,9.617,0,0,1-3.878,7.912c-.446.333-.872.636-1.285.914v.99a8.525,8.525,0,0,1,3.961,1.45Zm19.053,9.067-6.23-2.235-3.24,9.048a.888.888,0,0,1-1.69-.058l-.034-.122c-1.459-5.177-2.965-10.516-7.123-13.135-.08.33-.164.669-.25,1.017-1.507,6.089-2.419,11.329,1.46,13.421V46.994a.887.887,0,1,1,1.775,0v7.563c.221.278.471.6.749.965,1.28,1.663,3.423,4.446,4.639,4.884a3.319,3.319,0,0,0,4.228-2Zm5.63-8.879H45.07v2.569a.131.131,0,0,0,.129.129h.737a.887.887,0,0,1,.836,1.186l-.489,1.367,4.675,1.677,1.307-3.643a.887.887,0,0,1,.835-.588h2.231a1.437,1.437,0,0,0,1.434-1.437V33.585ZM62.5,30.218H39.343a1.707,1.707,0,0,0,1.7,1.592H60.793A1.709,1.709,0,0,0,62.5,30.218Zm1.125-2.578c-.038-1.956-1.3-3.548-2.81-3.548h-.345A5.666,5.666,0,0,1,61.32,25.7a.888.888,0,1,1-1.679.577,2.906,2.906,0,0,0-2.574-2.185h-.152a5.654,5.654,0,0,1,.852,1.61.887.887,0,1,1-1.68.573,2.9,2.9,0,0,0-2.57-2.184h-.155a5.666,5.666,0,0,1,.854,1.609.888.888,0,1,1-1.679.577,2.906,2.906,0,0,0-2.574-2.185H49.13c-1.51,0-2.769,1.59-2.806,3.545a.961.961,0,0,0,.2.638c.136.168.228.168.283.168H63.143c.054,0,.146,0,.279-.168a.933.933,0,0,0,.2-.635ZM41.247,10.445a.911.911,0,0,1-.129.519A.887.887,0,1,0,42.4,12.19a2.533,2.533,0,0,0,.619-1.744,2.483,2.483,0,0,0-.574-1.694.761.761,0,0,1-.209-.613.963.963,0,0,1,.12-.513.887.887,0,0,0-.987-1.475,2.341,2.341,0,0,0-.909,1.989,2.478,2.478,0,0,0,.573,1.69.764.764,0,0,1,.21.616Zm5.257,0a.926.926,0,0,1-.125.519.888.888,0,1,0,1.284,1.225,2.533,2.533,0,0,0,.615-1.744A2.483,2.483,0,0,0,47.7,8.752a.761.761,0,0,1-.209-.613.952.952,0,0,1,.124-.516.888.888,0,0,0-.994-1.47,2.35,2.35,0,0,0-.9,1.986,2.478,2.478,0,0,0,.573,1.69.766.766,0,0,1,.21.617Zm12.91,7.24a.89.89,0,0,1-.13.528.887.887,0,1,0,1.294,1.215,2.554,2.554,0,0,0,.611-1.743,2.481,2.481,0,0,0-.571-1.691.765.765,0,0,1-.208-.616.961.961,0,0,1,.12-.513.888.888,0,0,0-.987-1.475,2.341,2.341,0,0,0-.909,1.989,2.481,2.481,0,0,0,.571,1.691.765.765,0,0,1,.208.616Z"/>
    </g>
  </g>
</svg>
