<svg xmlns="http://www.w3.org/2000/svg" width="85" height="85" viewBox="0 0 85 85">
  <g id="Grupo_1108514" data-name="Grupo 1108514" transform="translate(-600.045 -3173)">
    <circle id="Elipse_11688" data-name="Elipse 11688" cx="42.5" cy="42.5" r="42.5" transform="translate(600.045 3173)" fill="#fff"/>
    <g id="Grupo_1108513" data-name="Grupo 1108513" transform="translate(8396.045 11608)">
      <path id="Trazado_899196" data-name="Trazado 899196" d="M263.019,222.509v9.764h-3.255V251.8h-6.509V232.273H250v-9.764a6.509,6.509,0,1,1,13.019,0Z" transform="translate(-7990.317 -8614.59)" fill="#b3f1ff"/>
      <ellipse id="Elipse_11691" data-name="Elipse 11691" cx="3.19" cy="3.544" rx="3.19" ry="3.544" transform="translate(-7737.05 -8408.656)" fill="#fce8d0"/>
      <path id="Trazado_899197" data-name="Trazado 899197" d="M143.019,222.509v9.764h-3.255V251.8h-6.509V232.273H130v-9.764a6.509,6.509,0,1,1,13.019,0Z" transform="translate(-7889.845 -8614.59)" fill="#ffda8f"/>
      <ellipse id="Elipse_11692" data-name="Elipse 11692" cx="2.835" cy="3.544" rx="2.835" ry="3.544" transform="translate(-7756.189 -8408.656)" fill="#fce8d0"/>
      <path id="Trazado_899198" data-name="Trazado 899198" d="M23.019,222.509v9.764H19.764V251.8H13.255V232.273H10v-9.764a6.509,6.509,0,1,1,13.019,0Z" transform="translate(-7789.373 -8614.59)" fill="#ff7b79"/>
      <ellipse id="Elipse_11693" data-name="Elipse 11693" cx="3.19" cy="3.544" rx="3.19" ry="3.544" transform="translate(-7776.038 -8408.656)" fill="#fce8d0"/>
      <path id="Trazado_899199" data-name="Trazado 899199" d="M29.764,150.882a4.882,4.882,0,1,0-4.882,4.882A4.888,4.888,0,0,0,29.764,150.882Zm-4.882,1.627a1.627,1.627,0,1,1,1.627-1.627A1.629,1.629,0,0,1,24.882,152.509Z" transform="translate(-7797.746 -8555.981)"/>
      <path id="Trazado_899200" data-name="Trazado 899200" d="M1.627,225.528H3.255v17.9a1.627,1.627,0,0,0,1.627,1.627h6.509a1.627,1.627,0,0,0,1.627-1.627v-17.9h1.627a1.627,1.627,0,0,0,1.627-1.627v-9.764a8.137,8.137,0,1,0-16.273,0V223.9A1.627,1.627,0,0,0,1.627,225.528Zm1.627-11.391a4.882,4.882,0,1,1,9.764,0v8.137H11.391A1.627,1.627,0,0,0,9.764,223.9v17.9H6.509V223.9a1.627,1.627,0,0,0-1.627-1.627H3.255Z" transform="translate(-7781 -8606.218)"/>
      <path id="Trazado_899201" data-name="Trazado 899201" d="M140,150.882A4.882,4.882,0,1,0,144.882,146,4.887,4.887,0,0,0,140,150.882Zm6.509,0a1.627,1.627,0,1,1-1.627-1.627A1.629,1.629,0,0,1,146.509,150.882Z" transform="translate(-7898.217 -8555.981)"/>
      <path id="Trazado_899202" data-name="Trazado 899202" d="M120,214.137V223.9a1.627,1.627,0,0,0,1.627,1.627h1.627v17.9a1.627,1.627,0,0,0,1.627,1.627h6.509a1.627,1.627,0,0,0,1.627-1.627v-17.9h1.627a1.627,1.627,0,0,0,1.627-1.627v-9.764a8.137,8.137,0,1,0-16.273,0Zm3.255,0a4.882,4.882,0,1,1,9.764,0v8.137h-1.627a1.627,1.627,0,0,0-1.627,1.627v17.9h-3.255V223.9a1.627,1.627,0,0,0-1.627-1.627h-1.627Z" transform="translate(-7881.472 -8606.218)"/>
      <path id="Trazado_899203" data-name="Trazado 899203" d="M269.764,150.882a4.882,4.882,0,1,0-4.882,4.882A4.888,4.888,0,0,0,269.764,150.882Zm-4.882,1.627a1.627,1.627,0,1,1,1.627-1.627A1.629,1.629,0,0,1,264.882,152.509Z" transform="translate(-7998.69 -8555.981)"/>
      <path id="Trazado_899204" data-name="Trazado 899204" d="M240,214.137V223.9a1.627,1.627,0,0,0,1.627,1.627h1.627v17.9a1.627,1.627,0,0,0,1.627,1.627h6.509a1.627,1.627,0,0,0,1.627-1.627v-17.9h1.627a1.627,1.627,0,0,0,1.627-1.627v-9.764a8.137,8.137,0,1,0-16.273,0Zm3.255,0a4.882,4.882,0,1,1,9.764,0v8.137h-1.627a1.627,1.627,0,0,0-1.627,1.627v17.9h-3.255V223.9a1.627,1.627,0,0,0-1.627-1.627h-1.627Z" transform="translate(-7981.944 -8606.218)"/>
      <path id="Trazado_899206" data-name="Trazado 899206" d="M46.032,66.477a1.628,1.628,0,0,0-2.3,0l-3.255,3.255a1.628,1.628,0,0,0,0,2.3l3.255,3.255a1.627,1.627,0,0,0,2.3-2.3l-.477-.477h8.416l-.477.477a1.627,1.627,0,1,0,2.3,2.3l3.255-3.255a1.628,1.628,0,0,0,0-2.3L55.8,66.477a1.627,1.627,0,1,0-2.3,2.3l.477.476H45.555l.477-.477A1.627,1.627,0,0,0,46.032,66.477Z" transform="translate(-7814.49 -8489.001)"/>
      <path id="Trazado_899207" data-name="Trazado 899207" d="M186.032,66.477a1.628,1.628,0,0,0-2.3,0l-3.255,3.255a1.628,1.628,0,0,0,0,2.3l3.255,3.255a1.627,1.627,0,0,0,2.3-2.3l-.477-.477h8.416l-.477.477a1.627,1.627,0,0,0,2.3,2.3l3.255-3.255a1.628,1.628,0,0,0,0-2.3L195.8,66.477a1.627,1.627,0,1,0-2.3,2.3l.477.476h-8.416l.477-.477A1.627,1.627,0,0,0,186.032,66.477Z" transform="translate(-7931.708 -8489.001)"/>
    </g>
  </g>
</svg>
