<svg xmlns="http://www.w3.org/2000/svg" width="82" height="82" viewBox="0 0 82 82">
  <g id="Grupo_1109381" data-name="Grupo 1109381" transform="translate(-1157.788 -2627)">
    <circle id="Elipse_11685" data-name="Elipse 11685" cx="41" cy="41" r="41" transform="translate(1157.788 2627)" fill="#9ec9ff"/>
    <g id="banquete" transform="translate(1165.788 2635)">
      <g id="Grupo_1109380" data-name="Grupo 1109380" transform="translate(0.97 0.97)">
        <g id="Grupo_1109379" data-name="Grupo 1109379">
          <g id="Grupo_1109371" data-name="Grupo 1109371" transform="translate(19.941 13.747)">
            <path id="Trazado_899951" data-name="Trazado 899951" d="M164.118,119.553a2.16,2.16,0,0,0,2.252-2.27l.028-3.114a.268.268,0,0,0-.268-.268l-1.72-.1h-2.44a.268.268,0,0,0-.268.268v3.214a2.416,2.416,0,0,0,1.445,2.212A2.391,2.391,0,0,0,164.118,119.553Z" transform="translate(-161.703 -113.801)" fill="#b3dafe"/>
          </g>
          <path id="Trazado_899952" data-name="Trazado 899952" d="M176,113.8h-1.94a.268.268,0,0,1,.268.268v3.214a2.415,2.415,0,0,1-1.445,2.211,2.414,2.414,0,0,0,3.385-2.211v-3.214A.268.268,0,0,0,176,113.8Z" transform="translate(-151.493 -100.054)" fill="#8ac9fe"/>
          <path id="Trazado_899953" data-name="Trazado 899953" d="M32.756,154.09l2.816,1.253,2.137-1.253a3.386,3.386,0,0,0,3.351-3.391h.679L35.572,149.4,29.4,150.7A3.385,3.385,0,0,0,32.756,154.09Z" transform="translate(-26.572 -131.054)" fill="#e4f3f7"/>
          <path id="Trazado_899954" data-name="Trazado 899954" d="M80.581,151.546l-1.362,1.016a3.386,3.386,0,0,1-3.351,3.391l1.206.376,1.769-.376a3.386,3.386,0,0,0,3.351-3.391Z" transform="translate(-67.027 -132.918)" fill="#cce9f2"/>
          <path id="Trazado_899955" data-name="Trazado 899955" d="M26.86,105.327l-1.545-.064a6.811,6.811,0,0,0-.708,0,6.8,6.8,0,0,0-6.088,6.766.226.226,0,0,0,.226.226H30.593l2.632-.154a.226.226,0,0,0,.226-.226A6.411,6.411,0,0,0,26.86,105.327Z" transform="translate(-17.094 -92.611)" fill="#f2fbff"/>
          <path id="Trazado_899956" data-name="Trazado 899956" d="M67.853,105.047H66.31a6.854,6.854,0,0,0-.716.038,6.8,6.8,0,0,1,6.088,6.766.226.226,0,0,1-.226.226H74.43a.226.226,0,0,0,.226-.226A6.8,6.8,0,0,0,67.853,105.047Z" transform="translate(-58.081 -92.432)" fill="#e4f3f7"/>
          <path id="Trazado_899957" data-name="Trazado 899957" d="M390.565,154.09l2.816,1.253,2.137-1.253a3.386,3.386,0,0,0,3.351-3.391h.679l-6.167-1.293-6.167,1.293A3.386,3.386,0,0,0,390.565,154.09Z" transform="translate(-338.11 -131.054)" fill="#e4f3f7"/>
          <path id="Trazado_899958" data-name="Trazado 899958" d="M438.391,151.546l-1.362,1.016a3.386,3.386,0,0,1-3.351,3.391l1.206.376,1.769-.376A3.386,3.386,0,0,0,440,152.562Z" transform="translate(-378.565 -132.918)" fill="#cce9f2"/>
          <path id="Trazado_899959" data-name="Trazado 899959" d="M384.67,105.327l-1.545-.064a6.444,6.444,0,0,0-6.8,6.766.226.226,0,0,0,.226.226H388.4l2.632-.154a.226.226,0,0,0,.226-.226A6.411,6.411,0,0,0,384.67,105.327Z" transform="translate(-328.633 -92.611)" fill="#f2fbff"/>
          <path id="Trazado_899960" data-name="Trazado 899960" d="M425.662,105.047h-1.543a6.855,6.855,0,0,0-.716.038,6.8,6.8,0,0,1,6.088,6.766.226.226,0,0,1-.226.226h2.975a.226.226,0,0,0,.226-.226A6.8,6.8,0,0,0,425.662,105.047Z" transform="translate(-369.619 -92.432)" fill="#e4f3f7"/>
          <path id="Trazado_899961" data-name="Trazado 899961" d="M232.484,12.568l-.124-4.449a.517.517,0,0,0-.517-.517l-1.7-.1h-.4a.517.517,0,0,0-.517.517V12.6a2.66,2.66,0,0,1-.979,2.061,2.66,2.66,0,0,0-.979,2.061V31.991h6.949l.092-15.29a2.66,2.66,0,0,0-.979-2.061,2.564,2.564,0,0,1-.843-2.072Z" transform="translate(-198.845 -7.5)" fill="#b3dafe"/>
          <path id="Trazado_899962" data-name="Trazado 899962" d="M252.294,14.658a2.66,2.66,0,0,1-.979-2.061V8.017A.517.517,0,0,0,250.8,7.5h-2.2a.517.517,0,0,1,.517.517V12.6a2.66,2.66,0,0,0,.979,2.061,2.66,2.66,0,0,1,.979,2.061V31.99h2.2V16.719A2.661,2.661,0,0,0,252.294,14.658Z" transform="translate(-217.421 -7.5)" fill="#8ac9fe"/>
          <path id="Trazado_899963" data-name="Trazado 899963" d="M241.794,305.73h3.674v22.778h-3.674Z" transform="translate(-211.496 -267.163)" fill="#878282"/>
          <path id="Trazado_899964" data-name="Trazado 899964" d="M151.975,471.687h17.083l3.46.35c1.983,0,3.344.973,3.344,2.955a.654.654,0,0,1-.654.654l-3.759.284H149.039a.654.654,0,0,1-.654-.654A3.59,3.59,0,0,1,151.975,471.687Z" transform="translate(-130.166 -411.659)" fill="#9e9797"/>
          <path id="Trazado_899965" data-name="Trazado 899965" d="M307.121,471.687h-4.268a3.59,3.59,0,0,1,3.59,3.59.654.654,0,0,1-.654.654h4.268a.654.654,0,0,0,.654-.654A3.59,3.59,0,0,0,307.121,471.687Z" transform="translate(-264.659 -411.659)" fill="#878282"/>
          <path id="Trazado_899966" data-name="Trazado 899966" d="M68.5,185.886l-2.915-.256H54.33l-1.567,1.253H26.2l-1.256-1.253H10.333A2.833,2.833,0,0,0,7.5,188.463V206.08c3.214,0,3.214.6,6.428.6s3.214,1.983,6.428,1.983,3.213-1.983,6.427-1.983,3.214,1.983,6.427,1.983,3.213-1.983,6.427-1.983,3.213,1.983,6.427,1.983,3.214-1.983,6.427-1.983,3.213,1.983,6.427,1.983,3.214-1.983,6.427-1.983,2.9-.6,6.111-.6l-.12-17.361A2.832,2.832,0,0,0,68.5,185.886Z" transform="translate(-7.5 -162.595)" fill="#f2fbff"/>
          <g id="Grupo_1109372" data-name="Grupo 1109372" transform="translate(57.429 23.035)">
            <path id="Trazado_899967" data-name="Trazado 899967" d="M454.426,206.521a18.719,18.719,0,0,1,4.009-.442V188.463a2.833,2.833,0,0,0-2.833-2.833h-4.009a2.833,2.833,0,0,1,2.833,2.833v18.059Z" transform="translate(-451.593 -185.63)" fill="#e4f3f7"/>
          </g>
          <path id="Trazado_899968" data-name="Trazado 899968" d="M58.917,330.415c-3.213,0-3.213-1.983-6.427-1.983s-3.214,1.983-6.427,1.983-3.213-1.983-6.427-1.983-3.213,1.983-6.427,1.983-3.214-1.983-6.427-1.983-3.213,1.983-6.427,1.983-3.214-1.983-6.428-1.983-3.214,1.983-6.428,1.983v3.279a.71.71,0,0,0,.8.7c2.443-.3,2.707-1.937,5.63-1.937,3.214,0,3.214,1.983,6.428,1.983s3.213-1.983,6.427-1.983,3.214,1.983,6.427,1.983,3.213-1.983,6.427-1.983,3.213,1.983,6.427,1.983,3.214-1.983,6.427-1.983,3.213,1.983,6.427,1.983,3.214-1.983,6.427-1.983a5.085,5.085,0,0,1,2.418.533,6.4,6.4,0,0,0,2.84.913.71.71,0,0,0,.8-.7l-.021-2.346c-2.12,0-2.448-1.3-3.616-1.892a5.086,5.086,0,0,0-2.418-.533C62.131,328.432,62.131,330.415,58.917,330.415Z" transform="translate(-7.5 -286.93)" fill="#fe93bb"/>
          <g id="Grupo_1109373" data-name="Grupo 1109373" transform="translate(60.262 42.035)">
            <path id="Trazado_899969" data-name="Trazado 899969" d="M473.5,332.551v4.028a8.2,8.2,0,0,0,3.212,1.4.71.71,0,0,0,.8-.7V334C475.387,334,474.665,333.138,473.5,332.551Z" transform="translate(-473.497 -332.551)" fill="#fe76a8"/>
          </g>
          <g id="Grupo_1109374" data-name="Grupo 1109374" transform="translate(17.441 23.035)">
            <path id="Trazado_899970" data-name="Trazado 899970" d="M171.758,185.63v10.946a1.4,1.4,0,0,1-1.387,1.417H143.756a1.4,1.4,0,0,1-1.387-1.417V185.63Z" transform="translate(-142.369 -185.63)" fill="#e4f3f7"/>
          </g>
          <g id="Grupo_1109375" data-name="Grupo 1109375" transform="translate(39.499 13.747)">
            <path id="Trazado_899971" data-name="Trazado 899971" d="M315.356,119.553a2.16,2.16,0,0,0,2.252-2.27l.028-3.114a.268.268,0,0,0-.268-.268l-1.72-.1h-2.44a.268.268,0,0,0-.268.268v3.214a2.416,2.416,0,0,0,1.445,2.212A2.391,2.391,0,0,0,315.356,119.553Z" transform="translate(-312.941 -113.801)" fill="#b3dafe"/>
          </g>
          <path id="Trazado_899972" data-name="Trazado 899972" d="M327.235,113.8H325.3a.268.268,0,0,1,.268.268v3.214a2.415,2.415,0,0,1-1.445,2.211,2.414,2.414,0,0,0,3.385-2.211v-3.214A.268.268,0,0,0,327.235,113.8Z" transform="translate(-283.174 -100.054)" fill="#8ac9fe"/>
          <g id="Grupo_1109378" data-name="Grupo 1109378" transform="translate(21.601 27.006)">
            <g id="Grupo_1109376" data-name="Grupo 1109376" transform="translate(0.035)">
              <path id="Trazado_899973" data-name="Trazado 899973" d="M264.039,219.977a7.872,7.872,0,0,1,3.9-2.407,6.938,6.938,0,0,1,1.658.035l.156,0c2.142.083,2.97,2.092,2.113,4.057a7.168,7.168,0,0,1-.993,1.878.388.388,0,0,0,0,.51,7.03,7.03,0,0,1,1.1,1.78,2.67,2.67,0,0,1-2.432,3.923c-.051,0-.1,0-.156,0a6.8,6.8,0,0,1-5.345-2.292l-.96-3.82Z" transform="translate(-251.664 -217.366)" fill="#fe93bb"/>
              <path id="Trazado_899974" data-name="Trazado 899974" d="M304.037,222.947a.388.388,0,0,1,0-.51,7.071,7.071,0,0,0,1.093-1.792,3.073,3.073,0,0,0-2.654-4.305l-.156,0a6.821,6.821,0,0,0-1.654.2,3.094,3.094,0,0,1,1.681,4.1,7.072,7.072,0,0,1-1.093,1.792.388.388,0,0,0,0,.51,7.072,7.072,0,0,1,1.093,1.792,3.093,3.093,0,0,1-1.681,4.1,6.819,6.819,0,0,0,1.654.2q.078,0,.156,0a3.073,3.073,0,0,0,2.654-4.305A7.07,7.07,0,0,0,304.037,222.947Z" transform="translate(-284.39 -216.337)" fill="#fe76a8"/>
              <path id="Trazado_899975" data-name="Trazado 899975" d="M183.435,218.947a7.536,7.536,0,0,0-5.555-2.611l-.156,0a3.073,3.073,0,0,0-2.654,4.305,7.072,7.072,0,0,0,1.093,1.792.388.388,0,0,1,0,.51,7.073,7.073,0,0,0-1.093,1.792,3.073,3.073,0,0,0,2.654,4.305q.077,0,.156,0a7.536,7.536,0,0,0,5.555-2.611l.96-3.595Z" transform="translate(-174.811 -216.336)" fill="#fe93bb"/>
              <path id="Trazado_899976" data-name="Trazado 899976" d="M235.036,236.526h3.751v3.744l.96,3.744h-5.67l.96-3.661Z" transform="translate(-226.412 -233.915)" fill="#fe76a8"/>
            </g>
            <g id="Grupo_1109377" data-name="Grupo 1109377" transform="translate(0 6.355)">
              <path id="Trazado_899977" data-name="Trazado 899977" d="M183.2,266.125l-.042.031a20.986,20.986,0,0,0-8.584,15.032q-.018.2-.032.4a.3.3,0,0,0,.417.29l2.436-1.1a.3.3,0,0,1,.38.125l1.483,2.653a.3.3,0,0,0,.545-.073l3.4-13.7Z" transform="translate(-174.537 -266.042)" fill="#fe5694"/>
              <path id="Trazado_899978" data-name="Trazado 899978" d="M270.5,265.481l.536.414a20.84,20.84,0,0,1,6.6,8.6,21.233,21.233,0,0,1,1.518,6.532.3.3,0,0,1-.417.29l-2.436-1.1a.3.3,0,0,0-.38.125L274.446,283a.3.3,0,0,1-.545-.073l-3.4-13.7v-3.744Z" transform="translate(-258.093 -265.481)" fill="#fe5694"/>
            </g>
          </g>
        </g>
      </g>
      <path id="Trazado_899979" data-name="Trazado 899979" d="M62.663,23.045a4.3,4.3,0,0,0,.606-1.421h.547a.97.97,0,0,0,.97-.97v-.226a7.786,7.786,0,0,0-5.933-7.551v-.715a2.612,2.612,0,1,0-5.223,0v.715A7.786,7.786,0,0,0,47.7,20.428v.226a.97.97,0,0,0,.97.97h.548a4.289,4.289,0,0,0,.6,1.412H43.854V21.252a3.241,3.241,0,0,0,2.265-3.086V15.151A1.223,1.223,0,0,0,44.9,13.93H40.871a1.223,1.223,0,0,0-1.221,1.221v3.014a3.241,3.241,0,0,0,2.265,3.086v1.784H37.791V18.821a.97.97,0,0,0-1.94,0v4.214H30.36V10.189a1.682,1.682,0,0,1,.621-1.31,3.617,3.617,0,0,0,1.336-2.813V1.94h1.578V6.066A3.631,3.631,0,0,0,35.231,8.88a1.681,1.681,0,0,1,.62,1.309v4.106a.97.97,0,0,0,1.94,0V10.189a3.613,3.613,0,0,0-1.335-2.813,1.693,1.693,0,0,1-.622-1.31V.97a.97.97,0,0,0-.97-.97H31.347a.97.97,0,0,0-.97.97v5.1a1.685,1.685,0,0,1-.622,1.31,3.621,3.621,0,0,0-1.334,2.813V23.035H24.3V21.252a3.241,3.241,0,0,0,2.265-3.086V15.151A1.223,1.223,0,0,0,25.34,13.93H21.313a1.223,1.223,0,0,0-1.221,1.221v3.014a3.241,3.241,0,0,0,2.265,3.086v1.784H16.4a4.292,4.292,0,0,0,.6-1.412h.547a.97.97,0,0,0,.97-.97v-.226a7.786,7.786,0,0,0-5.933-7.551v-.715a2.612,2.612,0,1,0-5.223,0v.715a7.786,7.786,0,0,0-5.933,7.551v.226a.97.97,0,0,0,.97.97h.547a4.3,4.3,0,0,0,.607,1.421A3.806,3.806,0,0,0,0,26.837v20.9A1.681,1.681,0,0,0,1.885,49.4a6.369,6.369,0,0,0,2.808-1.083A4.389,4.389,0,0,1,7.4,47.47a4.387,4.387,0,0,1,2.7.847,6.264,6.264,0,0,0,3.723,1.136,6.264,6.264,0,0,0,3.723-1.136,4.388,4.388,0,0,1,2.7-.847,4.227,4.227,0,0,1,1.769.329q-.162,1.013-.236,2.046a.97.97,0,0,0,1.366.952l2.259-1.019,1.505,2.693a.97.97,0,0,0,1.788-.24l.85-3.426c.269-.136.511-.281.744-.425V60.028h-7.52a4.559,4.559,0,0,0-4.558,4.56,1.625,1.625,0,0,0,1.623,1.623h7.284a.97.97,0,1,0,0-1.94H20.178a2.621,2.621,0,0,1,2.6-2.3H43.433a2.623,2.623,0,0,1,2.6,2.3H31.653a.97.97,0,0,0,0,1.94H46.368a1.6,1.6,0,0,0,1.147-.475,1.633,1.633,0,0,0,.476-1.148,4.564,4.564,0,0,0-4.558-4.56h-7.52V48.379c.232.143.474.287.743.423l.851,3.429a.97.97,0,0,0,1.788.24L40.8,49.778,43.059,50.8a.97.97,0,0,0,1.366-.952q-.072-1.032-.235-2.045a4.219,4.219,0,0,1,1.77-.33,4.389,4.389,0,0,1,2.7.846,10.057,10.057,0,0,0,1.022.573.97.97,0,1,0,.825-1.756,8.379,8.379,0,0,1-.829-.469,6.267,6.267,0,0,0-3.722-1.135,6.385,6.385,0,0,0-2.164.341q-.2-.823-.469-1.626a4.312,4.312,0,0,1,2.634-.8,4.385,4.385,0,0,1,2.7.847,6.668,6.668,0,0,0,7.446,0,4.74,4.74,0,0,1,5.408,0,6.375,6.375,0,0,0,2.753,1.076V47.43a4.8,4.8,0,0,1-1.734-.763,6.671,6.671,0,0,0-7.446,0,7.977,7.977,0,0,1-.87.488.97.97,0,0,0,.806,1.764,9.61,9.61,0,0,0,1.082-.6,4.743,4.743,0,0,1,5.41,0A6.373,6.373,0,0,0,64.328,49.4a1.681,1.681,0,0,0,1.883-1.666v-20.9a3.806,3.806,0,0,0-3.548-3.793ZM41.589,15.87h2.59v2.3a1.3,1.3,0,0,1-2.59,0v-2.3Zm-19.558,0h2.59v2.3a1.3,1.3,0,0,1-2.59,0v-2.3Zm34.21-4.38a.673.673,0,0,1,.672.672v.493H55.569v-.493A.673.673,0,0,1,56.241,11.49Zm-.772,3.1h1.543a5.842,5.842,0,0,1,5.786,5.09H49.683A5.842,5.842,0,0,1,55.47,14.594Zm-4.219,7.03h9.982a2.369,2.369,0,0,1-2.176,1.412H53.425A2.383,2.383,0,0,1,51.251,21.624ZM43.829,35.4a7.924,7.924,0,0,0-.722-1.2,8.279,8.279,0,0,0,.911-1.6,4.014,4.014,0,0,0-.282-3.757,3.928,3.928,0,0,0-3.351-1.84,8.329,8.329,0,0,0-5.858,2.557H31.685a8.328,8.328,0,0,0-5.858-2.557,3.928,3.928,0,0,0-3.351,1.84,4.014,4.014,0,0,0-.282,3.756,8.272,8.272,0,0,0,.911,1.6,7.924,7.924,0,0,0-.722,1.2H19.8a.418.418,0,0,1-.417-.417V24.975H46.83V34.981a.418.418,0,0,1-.417.417H43.829Zm-2.683-.514a5.569,5.569,0,0,1,1.094,1.7,2.058,2.058,0,0,1-.1,1.868,1.985,1.985,0,0,1-1.091.9A23.05,23.05,0,0,0,37.253,34.7l-.442-.417a3.007,3.007,0,0,1,1.458.191.97.97,0,0,0,.716-1.8,4.941,4.941,0,0,0-3.072-.19V30.919a6.292,6.292,0,0,1,4.471-1.973,1.968,1.968,0,0,1,1.71.935,2.076,2.076,0,0,1,.147,1.943,5.564,5.564,0,0,1-1.094,1.695.97.97,0,0,0,0,1.365ZM25.164,39.352a1.985,1.985,0,0,1-1.092-.906,2.059,2.059,0,0,1-.1-1.867,5.564,5.564,0,0,1,1.094-1.695.97.97,0,0,0,0-1.365,5.569,5.569,0,0,1-1.094-1.7,2.076,2.076,0,0,1,.147-1.943,1.968,1.968,0,0,1,1.71-.935A6.292,6.292,0,0,1,30.3,30.919v1.566a4.941,4.941,0,0,0-3.073.191.97.97,0,0,0,.716,1.8,3.009,3.009,0,0,1,1.459-.191l-.442.417a23.049,23.049,0,0,0-3.794,4.647Zm6.864-.512h2.157l.717,2.889a7.242,7.242,0,0,0-3.59,0Zm.211-1.94V31.5h1.734v5.4ZM9.97,11.49a.673.673,0,0,1,.672.672v.493H9.3v-.493A.673.673,0,0,1,9.97,11.49Zm-.771,3.1h1.543a5.842,5.842,0,0,1,5.786,5.09H3.412A5.842,5.842,0,0,1,9.2,14.594Zm5.764,7.03a2.374,2.374,0,0,1-2.176,1.412H7.154a2.373,2.373,0,0,1-2.177-1.412Zm5.29,23.907a6.264,6.264,0,0,0-3.723,1.136,4.387,4.387,0,0,1-2.7.847,4.388,4.388,0,0,1-2.7-.847A6.264,6.264,0,0,0,7.4,45.53a6.266,6.266,0,0,0-3.724,1.136,4.8,4.8,0,0,1-1.735.764V45.364a6.377,6.377,0,0,0,2.754-1.075,7.607,7.607,0,0,1,.919-.511A.97.97,0,0,0,4.83,42a9.22,9.22,0,0,0-1.155.634A4.759,4.759,0,0,1,1.94,43.4V26.837A1.864,1.864,0,0,1,3.8,24.975H17.441V34.981A2.36,2.36,0,0,0,19.8,37.338h2.056a4,4,0,0,0,.534,2.072A3.923,3.923,0,0,0,24.2,41.061q-.333.659-.623,1.338a6.022,6.022,0,0,0-3.328-.9,6.264,6.264,0,0,0-3.723,1.136,4.387,4.387,0,0,1-2.7.847,4.386,4.386,0,0,1-2.7-.846,10.5,10.5,0,0,0-.95-.54.97.97,0,1,0-.847,1.745,8.877,8.877,0,0,1,.779.446,6.264,6.264,0,0,0,3.722,1.135,6.263,6.263,0,0,0,3.723-1.136,4.388,4.388,0,0,1,2.7-.847,4.311,4.311,0,0,1,2.632.8q-.264.8-.469,1.626a6.393,6.393,0,0,0-2.163-.34Zm7.16,3.853-.742-1.328a.97.97,0,0,0-1.245-.411l-1.524.687a21.006,21.006,0,0,1,6.387-12.214l.01-.01v1.644Zm4.826,10.645V47.534a5.859,5.859,0,0,1,1.734,0V60.028Zm.868-14.5a6.01,6.01,0,0,0-2.9.661l.52-2.1a4.686,4.686,0,0,1,4.763,0l.521,2.1a6.008,6.008,0,0,0-2.9-.66Zm7.679,2.114a.969.969,0,0,0-1.245.411L38.8,49.383,35.913,37.751V36.107l.01.01A21.006,21.006,0,0,1,42.31,48.331Zm21.751-5.006a6.668,6.668,0,0,0-7.445,0,4.74,4.74,0,0,1-5.408,0A6.264,6.264,0,0,0,45.96,41.5a6.023,6.023,0,0,0-3.33.9q-.29-.679-.623-1.339a3.922,3.922,0,0,0,1.814-1.648,4,4,0,0,0,.536-2.075h2.056a2.36,2.36,0,0,0,2.357-2.357V24.975H62.409a1.864,1.864,0,0,1,1.862,1.862V43.4a4.758,4.758,0,0,1-1.734-.763Z"/>
    </g>
  </g>
</svg>
