<svg xmlns="http://www.w3.org/2000/svg" width="85" height="85" viewBox="0 0 85 85">
  <g id="Grupo_1108554" data-name="Grupo 1108554" transform="translate(-915.045 -3149)">
    <circle id="Elipse_11689" data-name="Elipse 11689" cx="42.5" cy="42.5" r="42.5" transform="translate(915.045 3149)" fill="#fff"/>
    <g id="salteado-de-huevo-con-tomate" transform="translate(922.045 3142.995)">
      <g id="Grupo_1108522" data-name="Grupo 1108522" transform="translate(28.081 23.941)">
        <g id="Grupo_1108515" data-name="Grupo 1108515" transform="translate(2.966 0)">
          <path id="Trazado_899208" data-name="Trazado 899208" d="M259.647,93.932a3.594,3.594,0,0,0-3.406-4.742l-.072,0a3.6,3.6,0,0,0-5.267-3.864,3.595,3.595,0,0,0-5.681-3.57,3.595,3.595,0,0,0-6.717,0,3.595,3.595,0,0,0-5.681,3.57,3.6,3.6,0,0,0-5.267,3.864l-.072,0a3.594,3.594,0,0,0-3.406,4.742Z" transform="translate(-223.889 -79.444)" fill="#fdf6ec"/>
        </g>
        <g id="Grupo_1108517" data-name="Grupo 1108517" transform="translate(17.6 0)">
          <g id="Grupo_1108516" data-name="Grupo 1108516">
            <path id="Trazado_899209" data-name="Trazado 899209" d="M347.137,89.19l-.072,0a3.6,3.6,0,0,0-5.267-3.864,3.595,3.595,0,0,0-5.681-3.57,3.594,3.594,0,0,0-6.7-.046c7.613,1.132,13.633,6.01,15.119,12.22h6.005a3.594,3.594,0,0,0-3.406-4.742Z" transform="translate(-329.419 -79.444)" fill="#fef1da"/>
          </g>
        </g>
        <g id="Grupo_1108519" data-name="Grupo 1108519" transform="translate(0 14.346)">
          <g id="Grupo_1108518" data-name="Grupo 1108518">
            <path id="Trazado_899210" data-name="Trazado 899210" d="M243.952,182.9H202.923a.425.425,0,0,0-.384.606l2.7,5.7h.695a4.25,4.25,0,0,1,3.025,1.253l1.972,1.972.09-.159a5.635,5.635,0,0,1,10.514,2.121l.017.153.15-.033a15.393,15.393,0,0,1,3.282-.354,15.192,15.192,0,0,1,10.813,4.479c.041.041.081.083.122.125a12.7,12.7,0,0,0,3.169-4.171l5.248-11.089A.425.425,0,0,0,243.952,182.9Z" transform="translate(-202.498 -182.9)" fill="#dff6fd"/>
          </g>
        </g>
        <g id="Grupo_1108521" data-name="Grupo 1108521" transform="translate(29.978 14.346)">
          <g id="Grupo_1108520" data-name="Grupo 1108520">
            <path id="Trazado_899211" data-name="Trazado 899211" d="M430.152,182.9H424.4a.425.425,0,0,1,.384.606L419.533,194.6a12.7,12.7,0,0,1-.857,1.521A15.366,15.366,0,0,1,422,198.642c.041.041.081.083.122.125a12.7,12.7,0,0,0,3.169-4.171l5.248-11.089A.425.425,0,0,0,430.152,182.9Z" transform="translate(-418.676 -182.9)" fill="#c8effe"/>
          </g>
        </g>
      </g>
      <g id="Grupo_1108523" data-name="Grupo 1108523" transform="translate(11.604 37.319)">
        <path id="Trazado_899212" data-name="Trazado 899212" d="M90.055,179.145l-3.141,3.141a.416.416,0,0,1-.588,0l-2.52-2.52a.416.416,0,0,1,0-.588l3.141-3.141a.416.416,0,0,1,.588,0l2.52,2.52A.416.416,0,0,1,90.055,179.145Z" transform="translate(-83.684 -175.915)" fill="#bbec6c"/>
      </g>
      <g id="Grupo_1108524" data-name="Grupo 1108524" transform="translate(13.106 37.319)">
        <path id="Trazado_899213" data-name="Trazado 899213" d="M99.382,178.558l-2.52-2.52a.416.416,0,0,0-.588,0l-1.14,1.14,1.38,1.38a.416.416,0,0,1,0,.588l-2,2,1.14,1.14a.416.416,0,0,0,.588,0l3.141-3.141A.416.416,0,0,0,99.382,178.558Z" transform="translate(-94.512 -175.916)" fill="#a2e62e"/>
      </g>
      <g id="Grupo_1108525" data-name="Grupo 1108525" transform="translate(11.058 16.045)">
        <path id="Trazado_899214" data-name="Trazado 899214" d="M86.113,25.735l-3.141,3.141a.416.416,0,0,1-.588,0l-2.52-2.52a.416.416,0,0,1,0-.588l3.141-3.141a.416.416,0,0,1,.588,0l2.52,2.52A.416.416,0,0,1,86.113,25.735Z" transform="translate(-79.742 -22.505)" fill="#bbec6c"/>
      </g>
      <g id="Grupo_1108526" data-name="Grupo 1108526" transform="translate(12.555 16.045)">
        <path id="Trazado_899215" data-name="Trazado 899215" d="M95.415,25.147l-2.52-2.52a.416.416,0,0,0-.588,0l-1.144,1.144,1.376,1.376a.416.416,0,0,1,0,.588l-2,2,1.144,1.144a.416.416,0,0,0,.588,0l3.141-3.141A.416.416,0,0,0,95.415,25.147Z" transform="translate(-90.541 -22.505)" fill="#a2e62e"/>
      </g>
      <g id="Grupo_1108527" data-name="Grupo 1108527" transform="translate(20.219 25.891)">
        <path id="Trazado_899216" data-name="Trazado 899216" d="M149.072,99.875l-3.141-3.141a.416.416,0,0,1,0-.588l2.52-2.52a.416.416,0,0,1,.588,0l3.141,3.141a.416.416,0,0,1,0,.588l-2.52,2.52A.416.416,0,0,1,149.072,99.875Z" transform="translate(-145.809 -93.504)" fill="#bbec6c"/>
      </g>
      <g id="Grupo_1108528" data-name="Grupo 1108528" transform="translate(21.712 25.891)">
        <path id="Trazado_899217" data-name="Trazado 899217" d="M161.453,96.768l-3.141-3.141a.416.416,0,0,0-.588,0l-1.149,1.149,1.993,1.993a.416.416,0,0,1,0,.588L157.2,98.728l1.149,1.149a.416.416,0,0,0,.588,0l2.52-2.52A.416.416,0,0,0,161.453,96.768Z" transform="translate(-156.575 -93.505)" fill="#a2e62e"/>
      </g>
      <g id="Grupo_1108552" data-name="Grupo 1108552" transform="translate(1.04 44.46)">
        <g id="Grupo_1108529" data-name="Grupo 1108529" transform="translate(35.373 0.186)">
          <path id="Trazado_899218" data-name="Trazado 899218" d="M262.831,232.074a4.526,4.526,0,0,0,3.221,1.334h.357a4.25,4.25,0,0,1,3.025,1.253l.559.559.089-.043a15.27,15.27,0,0,1,3.359-1.159,5.774,5.774,0,0,0-10.856-2.19Z" transform="translate(-262.586 -228.752)" fill="#fd5426"/>
        </g>
        <g id="Grupo_1108530" data-name="Grupo 1108530" transform="translate(37.129 0.186)">
          <path id="Trazado_899219" data-name="Trazado 899219" d="M276.575,229.669a5.774,5.774,0,0,1,5.715,4.958,15.448,15.448,0,0,1,2.059-.606,5.773,5.773,0,0,0-9.1-4.2A5.771,5.771,0,0,1,276.575,229.669Z" transform="translate(-275.248 -228.754)" fill="#ef4424"/>
        </g>
        <g id="Grupo_1108532" data-name="Grupo 1108532" transform="translate(7.006 0)">
          <g id="Grupo_1108531" data-name="Grupo 1108531">
            <path id="Trazado_899220" data-name="Trazado 899220" d="M61.5,243.2a5.606,5.606,0,0,1,2.083.4l.083.033.064-.061a2.644,2.644,0,0,1,1.826-.732H68.43a2.914,2.914,0,0,0,2.074-.859l4.436-4.436a2.638,2.638,0,0,1,1.878-.778H88.4a2.669,2.669,0,0,1,1.159.27l.151.073.041-.151A15.307,15.307,0,0,1,93.925,234l-.59-.59a4.417,4.417,0,0,0-3.123-1.294h-.357a4.417,4.417,0,0,1-3.123-1.294L84.614,228.7a4.417,4.417,0,0,0-3.123-1.294h-6.71a4.417,4.417,0,0,0-3.552,1.791l-2.813,3.805a4.417,4.417,0,0,1-3.552,1.791,4.417,4.417,0,0,0-4.1,2.774l-2.744,6.847A5.6,5.6,0,0,1,61.5,243.2Z" transform="translate(-58.02 -227.41)" fill="#ffe177"/>
          </g>
        </g>
        <g id="Grupo_1108533" data-name="Grupo 1108533" transform="translate(18.956 0.355)">
          <path id="Trazado_899221" data-name="Trazado 899221" d="M147.272,229.971a4.414,4.414,0,0,0-1.818,1.436l-1.259,1.7,1.874,1.874a.416.416,0,0,0,.588,0l2.52-2.52a.416.416,0,0,0,0-.588Z" transform="translate(-144.195 -229.971)" fill="#bbec6c"/>
        </g>
        <g id="Grupo_1108535" data-name="Grupo 1108535" transform="translate(22.033)">
          <g id="Grupo_1108534" data-name="Grupo 1108534">
            <path id="Trazado_899222" data-name="Trazado 899222" d="M186.672,233.408a4.417,4.417,0,0,0-3.123-1.294h-.357a4.417,4.417,0,0,1-3.123-1.294l-2.117-2.117a4.417,4.417,0,0,0-3.123-1.294h-6.71a4.414,4.414,0,0,0-1.734.355l1.905,1.905a.416.416,0,0,1,0,.588l-.056.056h5.205a4.417,4.417,0,0,1,3.123,1.294l2.117,2.117a4.417,4.417,0,0,0,3.123,1.294h.357a4.415,4.415,0,0,1,2.356.683,15.209,15.209,0,0,1,2.747-1.7Z" transform="translate(-166.384 -227.41)" fill="#ffd15b"/>
          </g>
        </g>
        <g id="Grupo_1108536" data-name="Grupo 1108536" transform="translate(28.383 5.792)">
          <path id="Trazado_899223" data-name="Trazado 899223" d="M218.549,272.407a.416.416,0,0,0,0-.588l-2.52-2.52a.416.416,0,0,0-.588,0L212.3,272.44a.414.414,0,0,0-.122.3h6.041Z" transform="translate(-212.178 -269.177)" fill="#bbec6c"/>
        </g>
        <g id="Grupo_1108537" data-name="Grupo 1108537" transform="translate(14.214 9.686)">
          <path id="Trazado_899224" data-name="Trazado 899224" d="M110.335,303h2.871a2.914,2.914,0,0,0,2.074-.859l3.068-3.068a4.656,4.656,0,0,0-8.212,3.936C110.2,303,110.268,303,110.335,303Z" transform="translate(-110.005 -297.26)" fill="#fd6930"/>
        </g>
        <g id="Grupo_1108538" data-name="Grupo 1108538" transform="translate(14.652 9.686)">
          <path id="Trazado_899225" data-name="Trazado 899225" d="M115.829,299.1a4.644,4.644,0,0,1,3.553,1.65l1.681-1.681a4.656,4.656,0,0,0-7.9.874A4.634,4.634,0,0,1,115.829,299.1Z" transform="translate(-113.158 -297.259)" fill="#fd5426"/>
        </g>
        <g id="Grupo_1108541" data-name="Grupo 1108541" transform="translate(38.573 4.952)">
          <g id="Grupo_1108539" data-name="Grupo 1108539">
            <path id="Trazado_899226" data-name="Trazado 899226" d="M307.524,267.639a15.43,15.43,0,0,0-21.822,0l-.043.16a2.659,2.659,0,0,1,.694.5l3.785,3.785a2.914,2.914,0,0,0,2.074.859h4.626a2.638,2.638,0,0,1,1.878.778l2.267,2.267a2.638,2.638,0,0,1,.778,1.878v1.6h10.255A15.391,15.391,0,0,0,307.524,267.639Z" transform="translate(-285.659 -263.12)" fill="#fd6930"/>
          </g>
          <g id="Grupo_1108540" data-name="Grupo 1108540" transform="translate(8.759 0)">
            <path id="Trazado_899227" data-name="Trazado 899227" d="M361.928,267.641a15.407,15.407,0,0,0-13.106-4.363,15.43,15.43,0,0,1,13.207,16.188h4.39A15.39,15.39,0,0,0,361.928,267.641Z" transform="translate(-348.822 -263.122)" fill="#fd5426"/>
          </g>
        </g>
        <g id="Grupo_1108542" data-name="Grupo 1108542" transform="translate(12.514 9.213)">
          <path id="Trazado_899228" data-name="Trazado 899228" d="M101.341,305.8l.006.132h38.691v-1.6a2.794,2.794,0,0,0-.818-1.976l-2.267-2.267a2.794,2.794,0,0,0-1.976-.818h-4.626a2.794,2.794,0,0,1-1.976-.818l-3.785-3.785a2.794,2.794,0,0,0-1.976-.818H111.028a2.794,2.794,0,0,0-1.976.818l-4.436,4.436a2.794,2.794,0,0,1-1.976.818H99.771a2.794,2.794,0,0,0-1.976.818l-.056.056a5.621,5.621,0,0,1,3.6,5Z" transform="translate(-97.739 -293.849)" fill="#ffe177"/>
        </g>
        <g id="Grupo_1108544" data-name="Grupo 1108544" transform="translate(21.851 9.213)">
          <g id="Grupo_1108543" data-name="Grupo 1108543">
            <path id="Trazado_899229" data-name="Trazado 899229" d="M197.218,302.356l-2.267-2.267a2.794,2.794,0,0,0-1.976-.818H188.35a2.794,2.794,0,0,1-1.976-.818l-3.785-3.785a2.794,2.794,0,0,0-1.976-.818H169.027a2.794,2.794,0,0,0-1.976.818l-1.976,1.976h14.049a2.794,2.794,0,0,1,1.976.818l3.785,3.785a2.794,2.794,0,0,0,1.976.818h4.626a2.794,2.794,0,0,1,1.976.818l2.267,2.267a2.791,2.791,0,0,1,.546.781h1.761v-1.6A2.8,2.8,0,0,0,197.218,302.356Z" transform="translate(-165.075 -293.848)" fill="#ffd15b"/>
          </g>
        </g>
        <g id="Grupo_1108545" data-name="Grupo 1108545" transform="translate(32.241 16.584)">
          <path id="Trazado_899230" data-name="Trazado 899230" d="M249.43,351.712a4.715,4.715,0,0,0-9.43,0Z" transform="translate(-240 -347)" fill="#fd6930"/>
        </g>
        <g id="Grupo_1108546" data-name="Grupo 1108546" transform="translate(35.5 16.584)">
          <path id="Trazado_899231" data-name="Trazado 899231" d="M264.956,347a4.71,4.71,0,0,0-1.456.23,4.716,4.716,0,0,1,3.259,4.482h2.912A4.715,4.715,0,0,0,264.956,347Z" transform="translate(-263.5 -347)" fill="#fd5426"/>
        </g>
        <g id="Grupo_1108547" data-name="Grupo 1108547" transform="translate(26.996 17.024)">
          <path id="Trazado_899232" data-name="Trazado 899232" d="M208.547,353.407a.416.416,0,0,0,0-.588l-2.52-2.52a.416.416,0,0,0-.588,0L202.3,353.44a.416.416,0,0,0,0,.588l.42.42h4.788Z" transform="translate(-202.176 -350.177)" fill="#bbec6c"/>
        </g>
        <g id="Grupo_1108548" data-name="Grupo 1108548" transform="translate(4.718 15.647)">
          <path id="Trazado_899233" data-name="Trazado 899233" d="M53.064,345.892a5.773,5.773,0,0,0-11.543,0Z" transform="translate(-41.522 -340.243)" fill="#fd6930"/>
        </g>
        <g id="Grupo_1108549" data-name="Grupo 1108549" transform="translate(8.634 15.647)">
          <path id="Trazado_899234" data-name="Trazado 899234" d="M71.616,340.242a5.763,5.763,0,0,0-1.855.306,5.776,5.776,0,0,1,3.916,5.343h3.711A5.773,5.773,0,0,0,71.616,340.242Z" transform="translate(-69.761 -340.242)" fill="#fd5426"/>
        </g>
        <g id="Grupo_1108550" data-name="Grupo 1108550" transform="translate(0 21.157)">
          <path id="Trazado_899235" data-name="Trazado 899235" d="M8.2,379.98a.692.692,0,0,0-.694.72,15.187,15.187,0,0,0,15.17,14.466H61.25A15.187,15.187,0,0,0,76.42,380.7a.692.692,0,0,0-.694-.72Z" transform="translate(-7.501 -379.98)" fill="#dff6fd"/>
        </g>
        <g id="Grupo_1108551" data-name="Grupo 1108551" transform="translate(3.939 21.157)">
          <path id="Trazado_899236" data-name="Trazado 899236" d="M100.19,379.98H93.26A15.193,15.193,0,0,1,78.711,390.8H40.132a15.2,15.2,0,0,1-4.229-.6,15.147,15.147,0,0,0,11.232,4.965H85.714a15.187,15.187,0,0,0,15.17-14.466A.692.692,0,0,0,100.19,379.98Z" transform="translate(-35.903 -379.98)" fill="#c8effe"/>
        </g>
      </g>
      <g id="Grupo_1108553" data-name="Grupo 1108553" transform="translate(0 15.005)">
        <path id="Trazado_899237" data-name="Trazado 899237" d="M333.375,118.867a1.04,1.04,0,0,0,1.342-.6.933.933,0,0,1,1.743,0,1.04,1.04,0,0,0,1.943-.742,3.013,3.013,0,0,0-5.63,0A1.04,1.04,0,0,0,333.375,118.867Z" transform="translate(-286.568 -101.638)"/>
        <path id="Trazado_899238" data-name="Trazado 899238" d="M385.958,143.331a1.04,1.04,0,0,0,1.342-.6.933.933,0,0,1,1.743,0,1.04,1.04,0,0,0,1.943-.742,3.013,3.013,0,0,0-5.63,0A1.04,1.04,0,0,0,385.958,143.331Z" transform="translate(-331.86 -122.71)"/>
        <path id="Trazado_899239" data-name="Trazado 899239" d="M283.876,142.731a1.04,1.04,0,1,0,1.943-.742,3.013,3.013,0,0,0-5.63,0,1.04,1.04,0,0,0,1.943.742.933.933,0,0,1,1.743,0Z" transform="translate(-241.276 -122.71)"/>
        <path id="Trazado_899240" data-name="Trazado 899240" d="M80.781,168.416a1.447,1.447,0,0,0-1.03.426l-3.141,3.141a1.456,1.456,0,0,0,0,2.059l2.52,2.52a1.458,1.458,0,0,0,2.059,0l3.141-3.141a1.456,1.456,0,0,0,0-2.059l-2.52-2.519A1.446,1.446,0,0,0,80.781,168.416Zm-.622,6.235-1.637-1.637,2.259-2.259,1.637,1.637Z" transform="translate(-65.619 -147.142)"/>
        <path id="Trazado_899241" data-name="Trazado 899241" d="M75.193,23.151a1.456,1.456,0,0,0,2.059,0l3.141-3.141a1.456,1.456,0,0,0,0-2.059l-2.52-2.519a1.456,1.456,0,0,0-2.059,0l-3.141,3.141a1.458,1.458,0,0,0,0,2.059Zm1.651-5.808,1.637,1.637L76.223,21.24,74.586,19.6Z" transform="translate(-62.229 -15.005)"/>
        <path id="Trazado_899242" data-name="Trazado 899242" d="M141.877,94.152a1.456,1.456,0,0,0,2.059,0l2.52-2.52a1.458,1.458,0,0,0,0-2.059l-3.141-3.141a1.456,1.456,0,0,0-2.059,0l-2.52,2.52a1.456,1.456,0,0,0,0,2.059Zm.408-5.808,2.259,2.259-1.637,1.637-2.259-2.259Z" transform="translate(-119.129 -76.159)"/>
        <path id="Trazado_899243" data-name="Trazado 899243" d="M408.667,313.184a1.037,1.037,0,0,0,.735-.3l.856-.856a1.04,1.04,0,1,0-1.471-1.471l-.856.856a1.04,1.04,0,0,0,.735,1.775Z" transform="translate(-351.101 -269.306)"/>
        <path id="Trazado_899244" data-name="Trazado 899244" d="M323.6,294.008a1.04,1.04,0,0,0,.736-1.775l-.856-.856a1.04,1.04,0,0,0-1.471,1.471l.856.856A1.036,1.036,0,0,0,323.6,294.008Z" transform="translate(-277.096 -252.789)"/>
        <path id="Trazado_899245" data-name="Trazado 899245" d="M371.288,288.249a1.04,1.04,0,0,0,1.04-1.04V286a1.04,1.04,0,0,0-2.08,0v1.21A1.04,1.04,0,0,0,371.288,288.249Z" transform="translate(-318.905 -247.524)"/>
        <path id="Trazado_899246" data-name="Trazado 899246" d="M70.522,114.159a1.746,1.746,0,0,0-1.257-.538H67.031a16.512,16.512,0,0,0-3.975-10.472,13.636,13.636,0,0,0,2.554-3.677l5.249-11.09a1.465,1.465,0,0,0-1.324-2.091h-1.5a4.643,4.643,0,0,0-3.6-4.484,4.634,4.634,0,0,0-5.328-4.377,4.64,4.64,0,0,0-6.32-3.548,4.629,4.629,0,0,0-7.532,0,4.64,4.64,0,0,0-6.32,3.548,4.634,4.634,0,0,0-5.328,4.377,4.643,4.643,0,0,0-3.6,4.484h-1.5a1.465,1.465,0,0,0-1.324,2.091l1.932,4.081H24.806a5.479,5.479,0,0,0-4.388,2.213l-2.813,3.805a3.39,3.39,0,0,1-2.715,1.369,5.44,5.44,0,0,0-1.768.3,1.04,1.04,0,1,0,.674,1.968,3.366,3.366,0,0,1,1.093-.185,5.479,5.479,0,0,0,4.388-2.213l.836-1.131,1.02,1.02a1.456,1.456,0,0,0,2.059,0l2.52-2.52a1.456,1.456,0,0,0,0-2.059l-.485-.485h6.288a3.354,3.354,0,0,1,2.388.989l2.117,2.117a5.421,5.421,0,0,0,3.859,1.6h.357a3.352,3.352,0,0,1,1.823.534,16.429,16.429,0,0,0-2.676,2.014,3.857,3.857,0,0,0-.954-.12H36.843a1.441,1.441,0,0,0-.313-.475l-2.52-2.519a1.456,1.456,0,0,0-2.059,0l-2.995,2.995H26.843a3.809,3.809,0,0,0-2.711,1.123l-.631.631a5.691,5.691,0,0,0-9.287,4.416c0,.052,0,.1,0,.156a3.823,3.823,0,0,0-.75.388,6.844,6.844,0,0,0-3.4-.12l1.22-3.043a1.04,1.04,0,1,0-1.931-.774L7.3,109.585a6.911,6.911,0,0,0-.536.473,6.768,6.768,0,0,0-1.916,3.563H1.734A1.732,1.732,0,0,0,0,115.43,16.2,16.2,0,0,0,16.21,130.888H54.789A16.2,16.2,0,0,0,71,115.43a1.732,1.732,0,0,0-.476-1.271ZM22.164,97.7l-.8-.8.726-.983a3.365,3.365,0,0,1,.8-.768l.913.913Zm14.188-2.657-.976-.976a5.421,5.421,0,0,0-3.859-1.6h-.1l-1.937-4.092h9.9a1.04,1.04,0,0,0,0-2.08H32.089a2.558,2.558,0,0,1,2.56-2.52H34.7a1.04,1.04,0,0,0,1.037-1.247,2.557,2.557,0,0,1,2.5-3.068,2.555,2.555,0,0,1,1.239.321A1.04,1.04,0,0,0,41,78.67a2.555,2.555,0,0,1,2.507-3.047,2.531,2.531,0,0,1,1.529.508,1.04,1.04,0,0,0,1.6-.461,2.555,2.555,0,0,1,4.774,0,1.04,1.04,0,0,0,1.6.461,2.532,2.532,0,0,1,1.529-.508,2.557,2.557,0,0,1,2.554,2.554,2.583,2.583,0,0,1-.048.493,1.04,1.04,0,0,0,1.527,1.108,2.556,2.556,0,0,1,3.742,2.747,1.04,1.04,0,0,0,.219.872,1.023,1.023,0,0,0,.817.375l.055,0a2.557,2.557,0,0,1,2.553,2.521H44.236a1.04,1.04,0,1,0,0,2.08H68.562L63.729,98.582a11.571,11.571,0,0,1-2.127,3.079,16.464,16.464,0,0,0-13.529-4.048,6.8,6.8,0,0,0-11.722-2.574Zm3.886,2.13H39.88a3.351,3.351,0,0,1-2.033-.681,4.727,4.727,0,0,1,8.191,1.568,16.416,16.416,0,0,0-1.96.694A5.421,5.421,0,0,0,40.237,97.168Zm20.505,6.543a14.419,14.419,0,0,1,4.209,9.91H62.393a1.039,1.039,0,0,0-.79-1.716h-1.21a1.039,1.039,0,0,0-.79,1.716H56.893V113.2a3.809,3.809,0,0,0-1.123-2.711L53.5,108.222a3.809,3.809,0,0,0-2.711-1.123H46.166a1.742,1.742,0,0,1-1.24-.514l-3.67-3.67a14.409,14.409,0,0,1,19.487.8ZM32.98,100.594l1.083,1.083H31.9ZM19.911,104.23a3.6,3.6,0,0,1,2.109.682L19.7,107.236a1.742,1.742,0,0,1-1.24.514H16.3A3.621,3.621,0,0,1,19.911,104.23Zm-8.382,5.961a4.766,4.766,0,0,1,4.547,3.43H6.982A4.766,4.766,0,0,1,11.529,110.19Zm43.26,18.617H16.21A14.12,14.12,0,0,1,2.1,115.7h43.66a1.04,1.04,0,1,0,0-2.08H43.628a5.75,5.75,0,0,0-9.934-2.635l-1.071-1.071a1.456,1.456,0,0,0-2.059,0l-3.141,3.141a1.448,1.448,0,0,0-.35.565H18.214a6.769,6.769,0,0,0-1.916-3.563q-.12-.118-.245-.229h2.4a3.809,3.809,0,0,0,2.711-1.123l4.436-4.436a1.742,1.742,0,0,1,1.24-.514H38.429a1.742,1.742,0,0,1,1.24.514l3.785,3.785a3.809,3.809,0,0,0,2.711,1.123h4.626a1.742,1.742,0,0,1,1.24.514L54.3,111.96a1.742,1.742,0,0,1,.514,1.24v.421h-4.2a1.04,1.04,0,0,0,0,2.08H68.9a14.12,14.12,0,0,1-14.109,13.106ZM29.8,113.621l1.794-1.794,1.637,1.637-.157.157H29.8Zm5.367-1.161a3.675,3.675,0,0,1,6.311,1.161H35.56a1.478,1.478,0,0,0,.009-.157A1.445,1.445,0,0,0,35.166,112.46Z" transform="translate(0 -64.049)"/>
        <path id="Trazado_899247" data-name="Trazado 899247" d="M209.1,316.825h-1.49a1.04,1.04,0,0,0,0,2.08h1.49a1.04,1.04,0,1,0,0-2.08Z" transform="translate(-177.925 -274.971)"/>
        <path id="Trazado_899248" data-name="Trazado 899248" d="M192.723,257.552a1.04,1.04,0,0,0,0-2.08h-1.49a1.04,1.04,0,0,0,0,2.08Z" transform="translate(-163.819 -222.126)"/>
        <path id="Trazado_899249" data-name="Trazado 899249" d="M338.411,352.291a1.04,1.04,0,0,0-1.04-1.04h-1.49a1.04,1.04,0,0,0,0,2.08h1.49A1.04,1.04,0,0,0,338.411,352.291Z" transform="translate(-288.408 -304.623)"/>
        <path id="Trazado_899250" data-name="Trazado 899250" d="M164.066,342.859h-1.49a1.04,1.04,0,0,0,0,2.08h1.49a1.04,1.04,0,0,0,0-2.08Z" transform="translate(-139.135 -297.395)"/>
      </g>
    </g>
  </g>
</svg>
