<svg xmlns="http://www.w3.org/2000/svg" width="82" height="82" viewBox="0 0 82 82">
  <g id="Grupo_1108579" data-name="Grupo 1108579" transform="translate(-308.045 -4819)">
    <circle id="Elipse_11690" data-name="Elipse 11690" cx="41" cy="41" r="41" transform="translate(308.045 4819)" fill="#ff7630"/>
    <g id="sopa-caliente" transform="translate(289.782 4823)">
      <g id="Grupo_1108568" data-name="Grupo 1108568" transform="translate(27.335 19.256)">
        <g id="Grupo_1108561" data-name="Grupo 1108561" transform="translate(16.741 43.729)">
          <path id="Trazado_899251" data-name="Trazado 899251" d="M180.962,440.86v1.6a5.779,5.779,0,0,1-3.39,5.258,31.274,31.274,0,0,1-23.239,0,5.779,5.779,0,0,1-3.39-5.258v-1.6Z" transform="translate(-150.943 -440.86)" fill="#8db9c2"/>
        </g>
        <g id="Grupo_1108562" data-name="Grupo 1108562" transform="translate(0 15.875)">
          <path id="Trazado_899252" data-name="Trazado 899252" d="M97.265,245.9a31.751,31.751,0,0,1-63.5,0Z" transform="translate(-33.764 -245.898)" fill="#eff3f5"/>
        </g>
        <g id="Grupo_1108563" data-name="Grupo 1108563" transform="translate(27.277 15.875)">
          <path id="Trazado_899253" data-name="Trazado 899253" d="M251.962,245.9a31.756,31.756,0,0,1-27.277,31.435A31.76,31.76,0,0,0,260.91,245.9Z" transform="translate(-224.685 -245.898)" fill="#c9e2e7"/>
        </g>
        <g id="Grupo_1108564" data-name="Grupo 1108564">
          <ellipse id="Elipse_11694" data-name="Elipse 11694" cx="31.751" cy="15.875" rx="31.751" ry="15.875" fill="#8db9c2"/>
        </g>
        <g id="Grupo_1108565" data-name="Grupo 1108565" transform="translate(4.33 4.33)">
          <path id="Trazado_899254" data-name="Trazado 899254" d="M91.49,188.176c-7.708,0-15.186-1.528-20.515-4.193-4.324-2.162-6.906-4.911-6.906-7.353s2.582-5.191,6.906-7.353c5.329-2.664,12.806-4.193,20.515-4.193s15.186,1.528,20.515,4.193c4.324,2.162,6.906,4.911,6.906,7.353s-2.582,5.191-6.906,7.353C106.676,186.648,99.2,188.176,91.49,188.176Z" transform="translate(-64.069 -165.085)" fill="#c9e2e7"/>
        </g>
        <g id="Grupo_1108566" data-name="Grupo 1108566" transform="translate(6.562 9.237)">
          <path id="Trazado_899255" data-name="Trazado 899255" d="M79.695,210.256a19,19,0,0,0,4.674,3.167c5.329,2.665,12.806,4.193,20.515,4.193s15.186-1.528,20.515-4.193a19,19,0,0,0,4.674-3.167c-.411-2.251-2.7-4.68-6.293-6.632-4.909-2.665-11.8-4.193-18.9-4.193s-13.987,1.528-18.9,4.193c-3.6,1.952-5.882,4.381-6.293,6.632Z" transform="translate(-79.695 -199.431)" fill="#fdcb82"/>
        </g>
        <g id="Grupo_1108567" data-name="Grupo 1108567" transform="translate(12.337 17.516)">
          <path id="Trazado_899256" data-name="Trazado 899256" d="M163.512,257.383a23.8,23.8,0,0,1-4.686,3c-6.222,3.111-14.951,4.895-23.951,4.895a64.575,64.575,0,0,1-14.762-1.667,49.17,49.17,0,0,0,19.414,3.673c7.708,0,15.186-1.528,20.515-4.193a19,19,0,0,0,4.674-3.167A6.155,6.155,0,0,0,163.512,257.383Z" transform="translate(-120.113 -257.383)" fill="#fcb143"/>
        </g>
      </g>
      <g id="Grupo_1108571" data-name="Grupo 1108571" transform="translate(41.786 33.307)">
        <g id="Grupo_1108569" data-name="Grupo 1108569">
          <path id="Trazado_899257" data-name="Trazado 899257" d="M149.471,236.4c-.429,2.433-3.375,3.608-7.36,3.608s-7.959-1.3-7.072-3.608c.722-1.876,3.856-1.519,7.649-2.742C147.162,232.211,149.9,233.943,149.471,236.4Z" transform="translate(-134.914 -233.129)" fill="#fc8086"/>
        </g>
        <g id="Grupo_1108570" data-name="Grupo 1108570" transform="translate(0.001 0.487)">
          <path id="Trazado_899258" data-name="Trazado 899258" d="M148.025,236.538a2.708,2.708,0,0,1-.012.9c-.429,2.433-3.375,3.608-7.36,3.608a13.146,13.146,0,0,1-5.734-1.121c-.03,1.924,3.578,3,7.2,3,3.985,0,6.931-1.175,7.36-3.608a2.509,2.509,0,0,0-1.45-2.781Z" transform="translate(-134.919 -236.538)" fill="#fb636f"/>
        </g>
      </g>
      <g id="Grupo_1108573" data-name="Grupo 1108573" transform="translate(63.126 33.111)">
        <g id="Grupo_1108572" data-name="Grupo 1108572" transform="translate(0)">
          <ellipse id="Elipse_11695" data-name="Elipse 11695" cx="2.886" cy="1.876" rx="2.886" ry="1.876" fill="#7fd061"/>
        </g>
      </g>
      <g id="Grupo_1108575" data-name="Grupo 1108575" transform="translate(72.218 35.853)">
        <g id="Grupo_1108574" data-name="Grupo 1108574">
          <ellipse id="Elipse_11696" data-name="Elipse 11696" cx="2.886" cy="1.876" rx="2.886" ry="1.876" fill="#7fd061"/>
        </g>
      </g>
      <g id="Grupo_1108577" data-name="Grupo 1108577" transform="translate(58.652 39.317)">
        <g id="Grupo_1108576" data-name="Grupo 1108576">
          <ellipse id="Elipse_11697" data-name="Elipse 11697" cx="2.886" cy="1.876" rx="2.886" ry="1.876" fill="#7fd061"/>
        </g>
      </g>
      <g id="Grupo_1108578" data-name="Grupo 1108578" transform="translate(26.263 0)">
        <path id="Trazado_899259" data-name="Trazado 899259" d="M91.907,144.227c0-2.9-1.4-5.743-4.04-8.227a29.046,29.046,0,0,0-10.226-5.793,1.072,1.072,0,0,0-.709,2.023c8.035,2.816,12.831,7.3,12.831,12,0,3.813-3.092,7.46-8.707,10.267-5.851,2.926-13.654,4.537-21.972,4.537A57.608,57.608,0,0,1,44.3,157.17a1.071,1.071,0,1,0-.559,2.069,59.774,59.774,0,0,0,15.345,1.935c8.644,0,16.787-1.692,22.93-4.763a22.793,22.793,0,0,0,6.9-5.031,30.681,30.681,0,0,1-59.673-.011,25.278,25.278,0,0,0,9.588,6.243,1.072,1.072,0,1,0,.8-1.989c-7.135-2.861-11.226-7.015-11.226-11.4,0-3.813,3.092-7.46,8.707-10.267,5.851-2.925,13.654-4.537,21.972-4.537a58.1,58.1,0,0,1,13.13,1.445,1.071,1.071,0,1,0,.485-2.087,60.236,60.236,0,0,0-13.616-1.5c-8.644,0-16.787,1.692-22.93,4.763-6.379,3.189-9.892,7.516-9.892,12.184a32.606,32.606,0,0,0,9.613,23.209A32.977,32.977,0,0,0,43,172.855v.82a6.868,6.868,0,0,0,4.017,6.234,29.017,29.017,0,0,0,12.064,2.335,29.019,29.019,0,0,0,12.064-2.335,6.867,6.867,0,0,0,4.017-6.234v-.82a32.986,32.986,0,0,0,7.128-5.42A32.607,32.607,0,0,0,91.907,144.227ZM70.261,177.959A26.881,26.881,0,0,1,59.085,180.1a26.881,26.881,0,0,1-11.176-2.142,4.721,4.721,0,0,1-2.752-3.994,33,33,0,0,0,27.855,0A4.722,4.722,0,0,1,70.261,177.959Z" transform="translate(-26.263 -109.096)"/>
        <path id="Trazado_899260" data-name="Trazado 899260" d="M61.72,165.841a1.071,1.071,0,1,0-1.307-1.7c-2.514,1.935-3.843,4.03-3.843,6.059,0,2.9,2.733,5.929,7.5,8.311,5.473,2.736,13.125,4.306,20.994,4.306s15.521-1.569,20.994-4.306c4.765-2.383,7.5-5.412,7.5-8.311s-2.733-5.929-7.5-8.311c-5.473-2.736-13.125-4.306-20.994-4.306-7.41,0-14.746,1.418-20.127,3.89a1.072,1.072,0,0,0,.895,1.947c5.111-2.348,12.121-3.695,19.232-3.695,7.547,0,14.85,1.487,20.036,4.08,3.895,1.947,6.314,4.4,6.314,6.395a3.828,3.828,0,0,1-.784,2.129,14.973,14.973,0,0,0-6.159-5.517c-5.06-2.747-12.134-4.322-19.406-4.322s-14.346,1.575-19.406,4.322a14.974,14.974,0,0,0-6.159,5.517,3.829,3.829,0,0,1-.784-2.129C58.713,168.883,59.781,167.334,61.72,165.841Zm4.958,2.857c4.756-2.582,11.457-4.063,18.384-4.063s13.628,1.481,18.384,4.063c2.947,1.6,4.989,3.557,5.606,5.339a19.209,19.209,0,0,1-3.954,2.56c-5.185,2.592-12.488,4.079-20.036,4.079s-14.85-1.487-20.036-4.079a19.214,19.214,0,0,1-3.954-2.56C61.689,172.255,63.731,170.3,66.678,168.7Z" transform="translate(-52.24 -135.071)"/>
        <path id="Trazado_899261" data-name="Trazado 899261" d="M135.693,234.632c4.844,0,7.912-1.638,8.416-4.493.011-.064.02-.128.028-.192A5.17,5.17,0,0,0,146,228.175a1.071,1.071,0,1,0-1.861-1.063,2.194,2.194,0,0,1-.468.543,3.593,3.593,0,0,0-.726-.864c-1.523-1.327-4.077-1.546-7.008-.6a28.082,28.082,0,0,1-3.551.837c-2.193.411-4.087.766-4.769,2.54a2.651,2.651,0,0,0,.281,2.52C129.191,233.964,132.772,234.632,135.693,234.632Zm-6.072-4.295c.241-.626,1.359-.865,3.164-1.2a29.839,29.839,0,0,0,3.814-.9,8.847,8.847,0,0,1,2.691-.473,3.438,3.438,0,0,1,2.252.65,1.376,1.376,0,0,1,.456,1.36c-.3,1.705-2.658,2.723-6.305,2.723-3.192,0-5.486-.832-6.024-1.615A.506.506,0,0,1,129.622,230.338Z" transform="translate(-112.973 -193.378)"/>
        <path id="Trazado_899262" data-name="Trazado 899262" d="M280.743,230.151c2.219,0,3.958-1.295,3.958-2.948s-1.738-2.948-3.958-2.948-3.958,1.295-3.958,2.948S278.523,230.151,280.743,230.151Zm0-3.752c1.108,0,1.815.528,1.815.8s-.707.8-1.815.8-1.815-.528-1.815-.8S279.635,226.4,280.743,226.4Z" transform="translate(-240.993 -192.217)"/>
        <path id="Trazado_899263" data-name="Trazado 899263" d="M344.383,249.344c2.219,0,3.958-1.295,3.958-2.948s-1.739-2.948-3.958-2.948-3.958,1.295-3.958,2.948S342.163,249.344,344.383,249.344Zm0-3.752c1.108,0,1.815.528,1.815.8s-.707.8-1.815.8-1.815-.528-1.815-.8S343.275,245.592,344.383,245.592Z" transform="translate(-295.541 -208.668)"/>
        <path id="Trazado_899264" data-name="Trazado 899264" d="M245.47,270.641c0,1.653,1.738,2.948,3.958,2.948s3.958-1.295,3.958-2.948-1.738-2.948-3.958-2.948S245.47,268.988,245.47,270.641Zm3.958-.8c1.108,0,1.815.528,1.815.8s-.707.8-1.815.8-1.815-.528-1.815-.8S248.32,269.836,249.428,269.836Z" transform="translate(-214.152 -229.448)"/>
        <path id="Trazado_899265" data-name="Trazado 899265" d="M244.459,11.9a3.993,3.993,0,0,0,.746,2.382,1.9,1.9,0,0,1,.408,1.227,1.072,1.072,0,0,0,2.143,0,3.992,3.992,0,0,0-.746-2.382,2.047,2.047,0,0,1,0-2.453,3.992,3.992,0,0,0,.746-2.382,3.99,3.99,0,0,0-.746-2.381,1.9,1.9,0,0,1-.408-1.226,1.9,1.9,0,0,1,.408-1.226,3.99,3.99,0,0,0,.746-2.381,1.072,1.072,0,0,0-2.143,0,1.9,1.9,0,0,1-.408,1.226,3.99,3.99,0,0,0-.746,2.381,3.991,3.991,0,0,0,.746,2.382,1.9,1.9,0,0,1,.408,1.226,1.9,1.9,0,0,1-.408,1.227,3.994,3.994,0,0,0-.746,2.382Z" transform="translate(-213.286 0)"/>
        <path id="Trazado_899266" data-name="Trazado 899266" d="M300.018,33.539a3.992,3.992,0,0,0,.746,2.382,1.9,1.9,0,0,1,.408,1.227,1.072,1.072,0,1,0,2.143,0,3.992,3.992,0,0,0-.746-2.382,2.047,2.047,0,0,1,0-2.453,4.173,4.173,0,0,0,0-4.763,1.9,1.9,0,0,1-.408-1.226,1.072,1.072,0,1,0-2.143,0,3.992,3.992,0,0,0,.746,2.382,2.046,2.046,0,0,1,0,2.453A3.992,3.992,0,0,0,300.018,33.539Z" transform="translate(-260.907 -21.643)"/>
        <path id="Trazado_899267" data-name="Trazado 899267" d="M187.89,33.539a3.992,3.992,0,0,0,.746,2.382,1.9,1.9,0,0,1,.408,1.227,1.072,1.072,0,0,0,2.143,0,3.992,3.992,0,0,0-.746-2.382,2.047,2.047,0,0,1,0-2.453,4.173,4.173,0,0,0,0-4.763,1.9,1.9,0,0,1-.408-1.226,1.072,1.072,0,0,0-2.143,0,3.992,3.992,0,0,0,.746,2.382,2.046,2.046,0,0,1,0,2.453A3.992,3.992,0,0,0,187.89,33.539Z" transform="translate(-164.799 -21.643)"/>
      </g>
    </g>
  </g>
</svg>
