<svg xmlns="http://www.w3.org/2000/svg" width="85" height="85" viewBox="0 0 85 85">
  <g id="Grupo_1108420" data-name="Grupo 1108420" transform="translate(-180.051 -6019)">
    <circle id="Elipse_11659" data-name="Elipse 11659" cx="42.5" cy="42.5" r="42.5" transform="translate(180.051 6019)" fill="#ff7630"/>
    <g id="cocina" transform="translate(192.051 6033)">
      <g id="Grupo_1108290" data-name="Grupo 1108290" transform="translate(0.892 0.894)">
        <path id="Trazado_897100" data-name="Trazado 897100" d="M148.435,291.629c-.829-3.526-3.59-5.179-7.053-5.789a19.536,19.536,0,0,0-2.477-.267,3.954,3.954,0,0,1-1.6-.36c-2.488,4.716-13.859,4.383-15.757,0v-.033a3.931,3.931,0,0,1-1.665.394,19.83,19.83,0,0,0-2.408.253c-3.366.577-6.077,2.13-7.023,5.413,1.462,1.4,13.33,12.105,13.423,12.692H148.8v-6a2.1,2.1,0,0,1,.746-1.6Zm0,0" transform="translate(-98.303 -252.39)" fill="#64b0d9" fill-rule="evenodd"/>
        <path id="Trazado_897101" data-name="Trazado 897101" d="M172.322,285.573a19.739,19.739,0,0,0-2.408.253v5.413l1.808,1.623,2.264-1.623V285.18A3.931,3.931,0,0,1,172.322,285.573Zm0,0" transform="translate(-150.737 -252.39)" fill="#e6e6e6" fill-rule="evenodd"/>
        <path id="Trazado_897102" data-name="Trazado 897102" d="M168.449,302.7H173.3a1.752,1.752,0,0,1,1.725,1.477h20.735l-1.588-9.2a1.77,1.77,0,0,0-1.645-1.65v-7.246a19.531,19.531,0,0,0-2.477-.267,3.955,3.955,0,0,1-1.6-.36v7.873H176C176.028,293.534,169.9,302.106,168.449,302.7Zm0,0" transform="translate(-149.445 -252.638)" fill="#e6e6e6" fill-rule="evenodd"/>
        <path id="Trazado_897103" data-name="Trazado 897103" d="M218.2,254.321l-5.671-1.79-6.243,1.757-.017.03a4.215,4.215,0,0,1-1.878,2.07v.033c1.9,4.383,13.27,4.716,15.757,0A4.371,4.371,0,0,1,218.2,254.321Zm0,0" transform="translate(-181.145 -223.598)" fill="#fcc368" fill-rule="evenodd"/>
        <path id="Trazado_897104" data-name="Trazado 897104" d="M197.226,119.363a45.988,45.988,0,0,0-13.626,0q-1.978.295-3.959.766v8.689c0,3.076,2.241,5.793,4.819,7.582a10.9,10.9,0,0,0,5.937,2.23,12.3,12.3,0,0,0,5.977-2.2c2.7-1.846,4.848-4.713,4.848-8.079v-8.229Q199.229,119.661,197.226,119.363Zm0,0" transform="translate(-159.315 -105.711)" fill="#ffdda6" fill-rule="evenodd"/>
        <path id="Trazado_897105" data-name="Trazado 897105" d="M175.936,7.57a6.015,6.015,0,0,0-5.361,3.2h-2.924c-4.226,0-6.743,4.647-2.787,7.109v6.463q1.983-.47,3.959-.767a46,46,0,0,1,13.626,0q2,.3,4,.767V17.876c3.956-2.463,1.548-7.109-2.677-7.109h-3.143a4.606,4.606,0,0,0-4.648-3.2Zm0,0" transform="translate(-144.538 -7.57)" fill="#e6e6e6" fill-rule="evenodd"/>
        <path id="Trazado_897106" data-name="Trazado 897106" d="M323.945,41.742c3.956-2.463,1.548-7.109-2.677-7.109H318.8c3.789,0,6.13,3.389,3.713,5.939-.776.816-1.022.393-1.022,1.536l-.01,5.583q1.234.225,2.464.513Zm0,0" transform="translate(-282.038 -31.436)" fill="#c2c7cc" fill-rule="evenodd"/>
        <path id="Trazado_897107" data-name="Trazado 897107" d="M261.59,177.773a6.019,6.019,0,0,1-2.464-1.12v2.16c0,3.366-2.148,6.236-4.851,8.079a12.259,12.259,0,0,1-5.977,2.2c-.067,0-.133.006-.2.006a7.124,7.124,0,0,0,2.671.507,12.3,12.3,0,0,0,5.977-2.2c2.7-1.846,4.848-4.713,4.848-8.079Zm0,0" transform="translate(-219.683 -156.681)" fill="#fcc368" fill-rule="evenodd"/>
        <path id="Trazado_897108" data-name="Trazado 897108" d="M296.876,269.787a4.372,4.372,0,0,1-1.948-2.1,13.609,13.609,0,0,1-3.533,1.73,4.457,4.457,0,0,0,2.591,2.3,3.425,3.425,0,0,0,.616.224A5.366,5.366,0,0,0,296.876,269.787Zm0,0" transform="translate(-257.869 -236.964)" fill="#eda93b" fill-rule="evenodd"/>
        <path id="Trazado_897109" data-name="Trazado 897109" d="M331.943,291.877c-.829-3.526-3.59-5.179-7.053-5.789a19.53,19.53,0,0,0-2.477-.267,3.955,3.955,0,0,1-1.6-.36,5.364,5.364,0,0,1-2.275,2.156,4.154,4.154,0,0,0,.979.137c.44.024.869.053,1.3.1.4.043.8.1,1.182.167a12.493,12.493,0,0,1,2.89.85,6.944,6.944,0,0,1,4.166,4.943,43.123,43.123,0,0,1,1.159,10.365h2.091v-6a2.1,2.1,0,0,1,.746-1.6Zm0,0" transform="translate(-281.811 -252.638)" fill="#4a83c9" fill-rule="evenodd"/>
        <path id="Trazado_897110" data-name="Trazado 897110" d="M341.873,286.088a19.531,19.531,0,0,0-2.477-.267,3.955,3.955,0,0,1-1.6-.36v2.393c.4.043.8.1,1.182.167a12.494,12.494,0,0,1,2.89.85Zm0,0" transform="translate(-298.794 -252.638)" fill="#c2c7cc" fill-rule="evenodd"/>
        <path id="Trazado_897111" data-name="Trazado 897111" d="M442.522,379.1a3.742,3.742,0,0,0-3.73-3.733H437.16a2.1,2.1,0,0,0-2.1,2.1v6.749a2.108,2.108,0,0,0,2.1,2.1h1.631a3.742,3.742,0,0,0,3.73-3.733Zm0,0" transform="translate(-384.568 -331.925)" fill="#ffdda6" fill-rule="evenodd"/>
        <path id="Trazado_897112" data-name="Trazado 897112" d="M435.192,145.051H431.4a2.579,2.579,0,0,0-2.571,2.573V155.4a2.578,2.578,0,0,0,2.571,2.573h3.789a2.581,2.581,0,0,0,2.57-2.573v-7.772a2.586,2.586,0,0,0-2.57-2.573Zm0,0" transform="translate(-379.073 -128.812)" fill="#e6e6e6" fill-rule="evenodd"/>
        <path id="Trazado_897113" data-name="Trazado 897113" d="M356.219,353.763a1.769,1.769,0,0,0-1.645-1.65H352.2l1.941,10.846h3.663Zm0,0" transform="translate(-311.495 -311.418)" fill="#c2c7cc" fill-rule="evenodd"/>
        <path id="Trazado_897114" data-name="Trazado 897114" d="M453.511,379.1a3.742,3.742,0,0,0-3.73-3.733H448.15a2.07,2.07,0,0,0-.626.1,3.747,3.747,0,0,1,2.887,3.636v3.486a3.75,3.75,0,0,1-2.887,3.637,2.175,2.175,0,0,0,.626.1h1.631a3.742,3.742,0,0,0,3.73-3.733Zm0,0" transform="translate(-395.557 -331.925)" fill="#fcc368" fill-rule="evenodd"/>
        <path id="Trazado_897115" data-name="Trazado 897115" d="M232.616,338.327a2.134,2.134,0,0,0-2.108-1.846h-3.576c-1.255,0-1.469,1.183-1.738,2.4-.137.607,2.6,1.29,2.387,1.857h2.927a2.132,2.132,0,0,0,2.128-2.127A2.052,2.052,0,0,0,232.616,338.327Zm0,0" transform="translate(-199.483 -297.631)" fill="#fcc368" fill-rule="evenodd"/>
        <path id="Trazado_897116" data-name="Trazado 897116" d="M13.256,336.48H9.679a2.128,2.128,0,0,0,0,4.256H12.6l2.774-2.633Zm0,0" transform="translate(-7.555 -297.631)" fill="#fcc368" fill-rule="evenodd"/>
        <path id="Trazado_897117" data-name="Trazado 897117" d="M63.778,336.48H46.229c-1.255,0-1.448,1.273-1.178,2.493a13.27,13.27,0,0,0,.523,1.763,11.877,11.877,0,0,0,6.846,6.959l4.052,2.533,5.411-2.533a12.278,12.278,0,0,0,6.743-6.959,12.424,12.424,0,0,0,.53-1.763c.27-1.219.08-2.493-1.179-2.493Zm0,0" transform="translate(-40.528 -297.631)" fill="#f78411" fill-rule="evenodd"/>
        <path id="Trazado_897118" data-name="Trazado 897118" d="M72.718,431.434H58.975a1.75,1.75,0,0,0-1.745,1.747V435a1.75,1.75,0,0,0,1.745,1.746H77.566A1.752,1.752,0,0,0,79.311,435V433.18a1.458,1.458,0,0,0-.024-.27,1.751,1.751,0,0,0-1.721-1.476Zm0,0" transform="translate(-51.363 -381.369)" fill="gray" fill-rule="evenodd"/>
        <path id="Trazado_897119" data-name="Trazado 897119" d="M167.248,336.48h-3.639c1.255,0,1.448,1.273,1.178,2.493a12.428,12.428,0,0,1-3.433,6.183c-.054.05-.107.1-.16.153a12.079,12.079,0,0,1-3.683,2.386h3.643a11.926,11.926,0,0,0,1.865-.97,12.372,12.372,0,0,0,5.407-7.753,3.957,3.957,0,0,0,.1-.646C168.6,337.344,168.284,336.48,167.248,336.48Zm0,0" transform="translate(-139.8 -297.631)" fill="#f74311" fill-rule="evenodd"/>
        <path id="Trazado_897120" data-name="Trazado 897120" d="M203.923,432.91a1.751,1.751,0,0,0-1.721-1.477h-3.643a1.754,1.754,0,0,1,1.725,1.477,1.8,1.8,0,0,1,.02.27V435a1.751,1.751,0,0,1-1.745,1.746H202.2A1.752,1.752,0,0,0,203.947,435V433.18A1.493,1.493,0,0,0,203.923,432.91Zm0,0" transform="translate(-175.998 -381.369)" fill="#666" fill-rule="evenodd"/>
        <path id="Trazado_897121" data-name="Trazado 897121" d="M458.628,145.994a2.567,2.567,0,0,0-1.981-.943H453.16a2.582,2.582,0,0,1,2.571,2.573V155.4a2.58,2.58,0,0,1-2.571,2.573h3.487a2.581,2.581,0,0,0,2.57-2.573v-7.772A2.557,2.557,0,0,0,458.628,145.994Zm0,0" transform="translate(-400.528 -128.812)" fill="#c2c7cc" fill-rule="evenodd"/>
        <path id="Trazado_897122" data-name="Trazado 897122" d="M332.247,143.813q-1.993-.47-4-.766c-.469,4.233,3.729,5.042,4,5.09Zm0,0" transform="translate(-290.339 -127.045)" fill="gray" fill-rule="evenodd"/>
        <path id="Trazado_897123" data-name="Trazado 897123" d="M183.6,143.047q-1.978.3-3.959.766v4.316C180.217,148.016,184.046,147.09,183.6,143.047Zm0,0" transform="translate(-159.315 -127.045)" fill="gray" fill-rule="evenodd"/>
        <path id="Trazado_897124" data-name="Trazado 897124" d="M343.956,145.7q-1.228-.29-2.464-.513v3.716a6.015,6.015,0,0,0,2.464,1.12Zm0,0" transform="translate(-302.049 -128.936)" fill="#666" fill-rule="evenodd"/>
      </g>
      <path id="Trazado_897125" data-name="Trazado 897125" d="M69.756,225.356A.893.893,0,0,0,71,226.634a3.017,3.017,0,0,0,.569-4.117c-.454-.889-.642-1.257.315-2.158a.893.893,0,0,0-1.224-1.3,3.084,3.084,0,0,0-.681,4.27C70.418,224.182,70.6,224.535,69.756,225.356Zm0,0" transform="translate(-61.212 -192.971)"/>
      <path id="Trazado_897126" data-name="Trazado 897126" d="M111.574,184.836a.893.893,0,0,0,1.246,1.279,3.015,3.015,0,0,0,.568-4.118c-.455-.889-.643-1.257.314-2.157a.893.893,0,1,0-1.224-1.3,3.083,3.083,0,0,0-.679,4.271C112.235,183.663,112.416,184.016,111.574,184.836Zm0,0" transform="translate(-98.088 -157.238)"/>
      <path id="Trazado_897127" data-name="Trazado 897127" d="M218.558,174.052a.888.888,0,0,0,.637-.268,2.374,2.374,0,0,1,1.877,0,.893.893,0,1,0,1.266-1.258,3.278,3.278,0,0,0-2.212-.723h-.018a3.243,3.243,0,0,0-2.188.729.893.893,0,0,0,.638,1.518Zm0,0" transform="translate(-191.956 -151.512)"/>
      <path id="Trazado_897128" data-name="Trazado 897128" d="M279.765,174.052a.886.886,0,0,0,.636-.268,2.375,2.375,0,0,1,1.878,0,.893.893,0,1,0,1.266-1.258,3.279,3.279,0,0,0-2.212-.723h-.018a3.243,3.243,0,0,0-2.188.729.893.893,0,0,0,.638,1.518Zm0,0" transform="translate(-245.933 -151.512)"/>
      <path id="Trazado_897129" data-name="Trazado 897129" d="M263.221,54.209a.892.892,0,0,0,.892-.893v-4.1a.893.893,0,0,0-1.785,0v4.1A.893.893,0,0,0,263.221,54.209Zm0,0" transform="translate(-231.343 -42.617)"/>
      <path id="Trazado_897130" data-name="Trazado 897130" d="M211.912,64.012a.892.892,0,0,0-.892.893V69a.893.893,0,0,0,1.785,0V64.9A.893.893,0,0,0,211.912,64.012Zm0,0" transform="translate(-186.095 -56.451)"/>
      <path id="Trazado_897131" data-name="Trazado 897131" d="M314.53,69.893a.892.892,0,0,0,.892-.893V64.9a.893.893,0,0,0-1.785,0V69A.893.893,0,0,0,314.53,69.893Zm0,0" transform="translate(-276.592 -56.451)"/>
      <path id="Trazado_897132" data-name="Trazado 897132" d="M57.011,30.943a3.468,3.468,0,0,0,3.463-3.466V19.7a3.468,3.468,0,0,0-3.463-3.465H53.222A3.468,3.468,0,0,0,49.759,19.7v7.772a3.468,3.468,0,0,0,3.463,3.466h1v12.5h-.739a2.99,2.99,0,0,0-.741.093l-.852-3.608c-.99-4.2-4.474-6.464-10.357-6.743h-.012a3.069,3.069,0,0,1-1.236-.271l-.042-.02a2.939,2.939,0,0,1-1.116-1.033c.19-.146.378-.3.561-.452a10.447,10.447,0,0,0,4-7.871V17.792a.86.86,0,0,0,0-.26V11.673A4.307,4.307,0,0,0,45.541,6.9,5.494,5.494,0,0,0,40.122,3.2H37.6A5.405,5.405,0,0,0,32.965.031,6.983,6.983,0,0,0,26.411,3.2H24.005a5.575,5.575,0,0,0-5.5,3.762,4.257,4.257,0,0,0,1.818,4.713V24A9.708,9.708,0,0,0,23.7,30.834c.369.349.759.681,1.164,1A2.96,2.96,0,0,1,23.718,32.9l0,0a3.05,3.05,0,0,1-1.267.285h-.012a20.666,20.666,0,0,0-2.539.269l-.01,0c-3.885.674-6.394,2.482-7.484,5.394H3.017a3.021,3.021,0,0,0,0,6.041h2.32a12.767,12.767,0,0,0,4.036,5.174H8.5A2.641,2.641,0,0,0,5.867,52.7v1.823A2.641,2.641,0,0,0,8.5,57.167h5.228a.893.893,0,0,0,0-1.785H8.5a.854.854,0,0,1-.852-.854V52.7a.854.854,0,0,1,.852-.854H27.1a.855.855,0,0,1,.835.679.8.8,0,0,0,.013.088.777.777,0,0,1,0,.087v1.823a.854.854,0,0,1-.853.854H17.8a.893.893,0,0,0,0,1.785h9.3a2.641,2.641,0,0,0,2.638-2.639v-1.2H50.5a3,3,0,0,0,2.987,2.853h1.632a4.629,4.629,0,0,0,4.622-4.625V48.069a4.631,4.631,0,0,0-3.73-4.538V30.943Zm-6.856,9.395,1,4.228a2.979,2.979,0,0,0-.658,1.87v5.107H47.956L46.5,43.092a2.8,2.8,0,0,0-1.633-2.223V35.442C47.819,36.2,49.561,37.816,50.155,40.338Zm-7.076-5.229V40.7H40.791v-5.79a5.542,5.542,0,0,0,.666.062C42.027,35,42.566,35.043,43.079,35.109ZM34.7,40.7a3.025,3.025,0,0,0-2.783-1.846H25.034V36.13a11.948,11.948,0,0,0,6.337,1.881q.284.011.578.011a12.262,12.262,0,0,0,7.058-1.969V40.7Zm-4.308,1.732a4.411,4.411,0,0,0,.063-1.793h1.463a1.236,1.236,0,0,1,0,2.471h-1.7Q30.315,42.771,30.391,42.429ZM41.907,18.376v2.406a3.451,3.451,0,0,1-2.222-2.838Q40.8,18.132,41.907,18.376ZM24.3,17.944a3.45,3.45,0,0,1-2.184,2.816V18.374Q23.2,18.132,24.3,17.944ZM22.111,24V22.663a6.757,6.757,0,0,0,2.015-1.046A4.954,4.954,0,0,0,26.1,17.669c1.344-.177,2.688-.294,4.021-.349a.893.893,0,1,0-.072-1.784,46.759,46.759,0,0,0-4.951.47h-.022c-.032,0-.063.009-.094.015q-1.439.217-2.875.523V11.2a.892.892,0,0,0-.421-.758A2.616,2.616,0,0,1,20.224,7.45a3.827,3.827,0,0,1,3.781-2.467h2.923a.893.893,0,0,0,.795-.485A5.166,5.166,0,0,1,32.8,1.809a3.623,3.623,0,0,1,3.326,2.531.892.892,0,0,0,.857.643h3.143a3.694,3.694,0,0,1,3.7,2.414,2.7,2.7,0,0,1-1.5,3.046.892.892,0,0,0-.421.758v5.348q-1.443-.3-2.891-.518a.912.912,0,0,0-.114-.021l-.036,0c-1.5-.22-3.007-.371-4.5-.448a.893.893,0,1,0-.092,1.783c1.194.061,2.4.174,3.6.332A4.952,4.952,0,0,0,40,21.735a6.814,6.814,0,0,0,1.9.942v.862a8.7,8.7,0,0,1-3.375,6.514,11.891,11.891,0,0,1-6.607,2.87c-.052,0-.106,0-.162,0a10.451,10.451,0,0,1-5.173-2.043.947.947,0,0,0-.091-.063,13.975,13.975,0,0,1-1.573-1.283A7.992,7.992,0,0,1,22.111,24Zm9.652,10.711c.088,0,.175,0,.26-.007a12.727,12.727,0,0,0,5.628-1.84,5.144,5.144,0,0,0,1,1.105c-1.457,1.688-4.545,2.36-7.208,2.258-2.768-.106-5.1-.99-6.111-2.263a5.18,5.18,0,0,0,1-1.119A11.274,11.274,0,0,0,31.763,34.712Zm-9.25.257a5.584,5.584,0,0,0,.736-.074v3.956H20.962V35.1Q21.7,35.009,22.513,34.969Zm-3.336.455v3.427H14.35A6.873,6.873,0,0,1,19.177,35.424ZM3.017,43.106a1.236,1.236,0,0,1,0-2.471H4.481a4.4,4.4,0,0,0,.062,1.793h0c.051.228.108.454.169.676Zm9.939,6.96a11.107,11.107,0,0,1-6.67-8.023,1.872,1.872,0,0,1,.049-1.331c.019-.023.062-.077.257-.077H28.341c.2,0,.24.054.259.077a1.877,1.877,0,0,1,.048,1.33,11.4,11.4,0,0,1-6.582,8.023Zm16.507,1.476A2.64,2.64,0,0,0,27.1,50.066h-1.54a13.208,13.208,0,0,0,4.032-5.174h2.329a3.025,3.025,0,0,0,2.959-2.41h9.1c.6,0,.749.812.765.909l1.408,8.151Zm28.491-3.474v3.487a2.842,2.842,0,0,1-2.837,2.84H53.485a1.209,1.209,0,0,1-1.206-1.211V46.436a1.2,1.2,0,0,1,.427-.92l.024-.02a1.2,1.2,0,0,1,.754-.268h1.632A2.842,2.842,0,0,1,57.954,48.069Zm-6.41-20.591V19.7a1.681,1.681,0,0,1,1.679-1.68h3.789A1.681,1.681,0,0,1,58.69,19.7v7.772a1.681,1.681,0,0,1-1.678,1.681H53.222A1.682,1.682,0,0,1,51.544,27.477Zm0,0" transform="translate(0 0)"/>
    </g>
  </g>
</svg>
