<svg xmlns="http://www.w3.org/2000/svg" width="47.433" height="52" viewBox="0 0 47.433 52">
  <g id="Grupo_1108376" data-name="Grupo 1108376" transform="translate(-194.73 -5774.494)">
    <rect id="Rectángulo_402557" data-name="Rectángulo 402557" width="26" height="52" rx="5" transform="translate(194.73 5774.494)" fill="#ffeacb"/>
    <g id="chef_3461974_1_" data-name="chef_3461974 (1)" transform="translate(196.73 5777.765)">
      <g id="Grupo_1107761" data-name="Grupo 1107761">
        <g id="Grupo_1107760" data-name="Grupo 1107760">
          <g id="Grupo_1107755" data-name="Grupo 1107755" transform="translate(4.01 29.131)">
            <g id="Grupo_1107754" data-name="Grupo 1107754">
              <path id="Trazado_896016" data-name="Trazado 896016" d="M76.513,324.728v-5.916a5.551,5.551,0,0,0-3.78-5.261l-8.033-2.7a1.85,1.85,0,0,1-1.26-1.754v-3.013H55.206v3.013a1.85,1.85,0,0,1-1.26,1.754l-8.033,2.7a5.551,5.551,0,0,0-3.78,5.261v5.916a.952.952,0,0,0,.952.952H75.561A.952.952,0,0,0,76.513,324.728Z" transform="translate(-42.133 -306.082)" fill="#f8f5f9"/>
            </g>
          </g>
          <path id="Trazado_896017" data-name="Trazado 896017" d="M168.823,311.087l-2.136-.238a1.85,1.85,0,0,1-1.26-1.754v-3.013h-6.806v3.013a1.85,1.85,0,0,1-1.26,1.754l-.935.315,4.61,3.572Z" transform="translate(-141.538 -276.951)" fill="#f1ccbd"/>
          <path id="Trazado_896018" data-name="Trazado 896018" d="M236,306.083v4.44a1.85,1.85,0,0,0,1.26,1.754l.6.2,2.967-1.39-.708-.238a1.85,1.85,0,0,1-1.26-1.754v-3.013Z" transform="translate(-213.539 -276.952)" fill="#eaad9c"/>
          <g id="Grupo_1107757" data-name="Grupo 1107757">
            <path id="Trazado_896019" data-name="Trazado 896019" d="M134.708,161.829s-2.912.165-4.117-.421a9.13,9.13,0,0,1-5.144-8.216v-5.558l9.129-4.27,9.129,4.27v5.558a9.129,9.129,0,0,1-4.881,8.083C137.556,161.944,136.242,161.829,134.708,161.829Z" transform="translate(-113.509 -129.719)" fill="#f1ccbd"/>
            <path id="Trazado_896020" data-name="Trazado 896020" d="M189.753,173.234v6.986a8.438,8.438,0,0,1-2.214,5.961c-3.167,3.322-7.82,2.308-8.045,2.255a9.235,9.235,0,0,0,3.158.877s.424.037.828.037a9.129,9.129,0,0,0,9.129-9.129v-5.558Z" transform="translate(-162.41 -156.746)" fill="#eaad9c"/>
            <path id="Trazado_896021" data-name="Trazado 896021" d="M317.918,212.063h-.625V208.53h.625a1.766,1.766,0,1,1,0,3.533Z" transform="translate(-287.095 -188.683)" fill="#f1ccbd"/>
            <path id="Trazado_896022" data-name="Trazado 896022" d="M102.082,212.063h.625V208.53h-.625a1.766,1.766,0,1,0,0,3.533Z" transform="translate(-90.768 -188.683)" fill="#eaad9c"/>
            <path id="Trazado_896023" data-name="Trazado 896023" fill="#fff" stroke="#000" stroke-linecap="round" stroke-linejoin="round" stroke-miterlimit="10" stroke-width="15"/>
            <path id="Trazado_896024" data-name="Trazado 896024" fill="#fff" stroke="#000" stroke-linecap="round" stroke-linejoin="round" stroke-miterlimit="10" stroke-width="15"/>
            <path id="Trazado_896025" data-name="Trazado 896025" d="M128.743,13.824a5.029,5.029,0,0,0-6.2-4.329.661.661,0,0,1-.661-.216,5.026,5.026,0,0,0-7.672,0,.661.661,0,0,1-.661.216,5.029,5.029,0,0,0-4.057,9.021.661.661,0,0,1,.274.658L109.05,24.7a64.8,64.8,0,0,1,18.259,0c-.248-1.426-.5-4.275-.743-5.7a.661.661,0,0,1,.246-.637A5.024,5.024,0,0,0,128.743,13.824Z" transform="translate(-97.111 -6.786)" fill="#f8f5f9"/>
            <g id="Grupo_1107756" data-name="Grupo 1107756" transform="translate(25.435 2.564)">
              <path id="Trazado_896026" data-name="Trazado 896026" d="M267.248,27.088a.193.193,0,0,0,.126.181,5.03,5.03,0,0,1,1.286,8.687.662.662,0,0,0-.248.637c.229,1.318.458,3.852.687,5.355,1.018.1,1.99.216,2.911.347-.248-1.426-.5-4.276-.743-5.7a.659.659,0,0,1,.246-.635,5.029,5.029,0,0,0-4.266-8.869Z" transform="translate(-267.248 -26.944)" fill="#dad9e4"/>
            </g>
          </g>
          <path id="Trazado_896027" data-name="Trazado 896027" d="M194.474,361.132l-7.324-2.464-8.481,3.973a3.454,3.454,0,0,0-1.988,3.128v7.492H197.3a.952.952,0,0,0,.952-.952v-5.916A5.55,5.55,0,0,0,194.474,361.132Z" transform="translate(-159.865 -324.532)" fill="#dbd8ea"/>
          <path id="Trazado_896028" data-name="Trazado 896028" d="M262.855,362.56a5.551,5.551,0,0,1,3.78,5.261v5.441h1.9a.952.952,0,0,0,.952-.952v-5.916a5.55,5.55,0,0,0-3.78-5.261l-7.324-2.464-2.976,1.395Z" transform="translate(-231.101 -324.532)" fill="#d0cde4"/>
          <g id="Grupo_1107759" data-name="Grupo 1107759" transform="translate(33.299 24.27)">
            <g id="Grupo_1107758" data-name="Grupo 1107758">
              <path id="Trazado_896029" data-name="Trazado 896029" d="M349.87,256.428v6.853a1.428,1.428,0,0,0,1.428,1.428h.857a1.428,1.428,0,0,1,1.428,1.428V274.7a1.428,1.428,0,0,0,1.428,1.428h1.142a1.428,1.428,0,0,0,1.428-1.428v-8.566a1.428,1.428,0,0,1,1.428-1.428h.857a1.428,1.428,0,0,0,1.428-1.428v-6.853A1.428,1.428,0,0,0,359.863,255H351.3A1.428,1.428,0,0,0,349.87,256.428Z" transform="translate(-349.87 -255)" fill="#ebf4ff"/>
            </g>
            <path id="Trazado_896030" data-name="Trazado 896030" d="M374.756,431.854h-3.927a1.1,1.1,0,0,1-1.1-1.1v-5.437a1.1,1.1,0,0,1,1.1-1.1h3.927a2.612,2.612,0,0,1,2.612,2.612v2.417A2.612,2.612,0,0,1,374.756,431.854Z" transform="translate(-367.837 -408.108)" fill="#f1ccbd"/>
            <path id="Trazado_896031" data-name="Trazado 896031" d="M395.421,424.214h-2.855a2.612,2.612,0,0,1,2.612,2.612v2.417a2.612,2.612,0,0,1-2.612,2.612h2.855a2.612,2.612,0,0,0,2.612-2.612v-2.417A2.612,2.612,0,0,0,395.421,424.214Z" transform="translate(-388.502 -408.109)" fill="#eaad9c"/>
          </g>
        </g>
      </g>
      <path id="Trazado_896032" data-name="Trazado 896032" d="M42.481,43.019a.714.714,0,0,0-.714.714v4.283a.714.714,0,0,0,1.428,0V43.733A.714.714,0,0,0,42.481,43.019Zm9.39,2.379a.714.714,0,1,0,.714.714A.714.714,0,0,0,51.871,45.4Zm4.283,0a.714.714,0,1,0,.714.714A.714.714,0,0,0,56.154,45.4Zm-4.283-4.283a.714.714,0,1,0,.714.714A.714.714,0,0,0,51.871,41.116Zm4.283,0a.714.714,0,1,0,.714.714A.714.714,0,0,0,56.154,41.116Zm18.471-17.56H66.06A2.144,2.144,0,0,0,63.918,25.7V32.55a2.144,2.144,0,0,0,2.141,2.141h.857a.715.715,0,0,1,.714.714v1.233a6.288,6.288,0,0,0-1.46-.715l-8.033-2.7a1.172,1.172,0,0,1-.774-1.249,9.854,9.854,0,0,0,4.862-7.88,2.479,2.479,0,0,0,.02-4.956c0-.14.008-1.211-.009-1.325-.1-.717-.245-1.769-.368-2.828s-.247-2.128-.372-2.86a5.723,5.723,0,0,0,2.178-5.16,5.645,5.645,0,0,0-.613-2.02A.714.714,0,1,0,61.8,5.6a4.224,4.224,0,0,1,.459,1.512,4.306,4.306,0,0,1-1.657,3.9,1.371,1.371,0,0,0-.513,1.324c.12.693.245,1.769.366,2.81.077.663.155,1.34.234,1.934a65.505,65.505,0,0,0-16.585,0l.6-4.59a1.379,1.379,0,0,0-.573-1.35,4.3,4.3,0,0,1-1.858-3.75A4.315,4.315,0,0,1,47.6,3.4a1.367,1.367,0,0,0,1.375-.448,4.312,4.312,0,0,1,6.583,0,1.367,1.367,0,0,0,1.375.448A4.333,4.333,0,0,1,58.5,3.311a4.256,4.256,0,0,1,1.256.355.714.714,0,1,0,.594-1.3,5.674,5.674,0,0,0-1.677-.474,5.751,5.751,0,0,0-2.042.114,5.74,5.74,0,0,0-8.721,0A5.743,5.743,0,0,0,43.283,12.3c-.01.057-.72,5.535-.723,5.589,0,.031,0,1.216,0,1.249a2.479,2.479,0,0,0,.02,4.956A9.766,9.766,0,0,0,43.25,27.1a.714.714,0,1,0,1.327-.527,8.376,8.376,0,0,1-.59-3.1V18.54a63.8,63.8,0,0,1,16.831,0v4.934a8.416,8.416,0,0,1-14.608,5.7.714.714,0,1,0-1.05.967A9.835,9.835,0,0,0,47.7,32.119v.026a1.135,1.135,0,0,1-.774,1.077l-8.033,2.7a6.26,6.26,0,0,0-4.266,5.938v6.154a.714.714,0,0,0,1.428,0V41.862a4.834,4.834,0,0,1,3.294-4.585l6.735-2.266,3.4,2.636a4.186,4.186,0,0,0-2.053,3.59v6.779a.714.714,0,0,0,1.428,0V41.237a2.75,2.75,0,0,1,1.577-2.481L58.662,34.9l7.052,2.373a4.854,4.854,0,0,1,1.916,1.2v1.179h-.006a1.818,1.818,0,0,0-1.816,1.816v5.437a1.818,1.818,0,0,0,1.816,1.816h3.927A3.33,3.33,0,0,0,74.877,45.4V42.987a3.329,3.329,0,0,0-1.822-2.965V35.405a.715.715,0,0,1,.714-.714h.857a2.144,2.144,0,0,0,2.141-2.141V25.7a2.143,2.143,0,0,0-2.141-2.141Zm-12.38-2.992a1.053,1.053,0,0,1,0,2.1Zm-19.687,2.1a1.053,1.053,0,0,1,0-2.1Zm8.365,14.291-3.234-2.506a2.56,2.56,0,0,0,1.373-1.718,9.814,9.814,0,0,0,6.924-.089,2.559,2.559,0,0,0,.919,1.51Zm22.526,6.034V45.4a1.9,1.9,0,0,1-1.9,1.9H67.624a.389.389,0,0,1-.388-.389V41.477a.389.389,0,0,1,.388-.389h3.927a1.9,1.9,0,0,1,1.9,1.9Zm1.89-10.437a.715.715,0,0,1-.714.714h-.857a2.144,2.144,0,0,0-2.141,2.141v4.258c-.069,0-2.494,0-2.57,0V35.405a2.144,2.144,0,0,0-2.141-2.141H66.06a.715.715,0,0,1-.714-.714V25.7a.715.715,0,0,1,.714-.714h8.566a.715.715,0,0,1,.714.714ZM51.558,9.577V13a.714.714,0,1,0,1.428,0V9.577a.714.714,0,1,0-1.428,0ZM55.883,9.3l-1.423,3.422a.714.714,0,1,0,1.318.548L57.2,9.851A.714.714,0,1,0,55.883,9.3Zm1.4,13.781V21.611a.714.714,0,1,0-1.428,0v1.473a.714.714,0,1,0,1.428,0Zm10.207,3.327a.714.714,0,0,0-.714.714v4a.714.714,0,0,0,1.428,0v-4A.714.714,0,0,0,67.487,26.411ZM47.727,8.918a.714.714,0,0,0-.385.933l1.423,3.422a.714.714,0,1,0,1.318-.548L48.66,9.3a.714.714,0,0,0-.933-.385ZM70.343,26.411a.714.714,0,0,0-.714.714v4a.714.714,0,0,0,1.428,0v-4A.714.714,0,0,0,70.343,26.411Zm2.855,0a.714.714,0,0,0-.714.714v4a.714.714,0,1,0,1.428,0v-4A.714.714,0,0,0,73.2,26.411Zm-20.69,1.556a2.934,2.934,0,0,0,1.6-.542.714.714,0,1,0-.826-1.164,1.5,1.5,0,0,1-1.749,0,.714.714,0,1,0-.825,1.165,3.286,3.286,0,0,0,1.805.542Zm-3.556-4.883V21.611a.714.714,0,1,0-1.428,0v1.473a.714.714,0,0,0,1.428,0Z" transform="translate(-31.333 0)"/>
    </g>
  </g>
</svg>
