<svg xmlns="http://www.w3.org/2000/svg" width="103" height="103" viewBox="0 0 103 103">
  <g id="Grupo_1109367" data-name="Grupo 1109367" transform="translate(-214.788 -2445)">
    <circle id="Elipse_11683" data-name="Elipse 11683" cx="51.5" cy="51.5" r="51.5" transform="translate(214.788 2445)" fill="#ff7630"/>
    <g id="prioridad" transform="translate(225.788 2455)">
      <path id="Trazado_899920" data-name="Trazado 899920" d="M68.072,114.274H26.911A19.411,19.411,0,0,0,7.5,133.685v13.532a19.376,19.376,0,0,0,7.372,15.227,29.885,29.885,0,0,1-4.307,9.992,2.866,2.866,0,0,0,2,4.518,21.525,21.525,0,0,0,20.8-10.326H68.072a19.411,19.411,0,0,0,19.411-19.411V133.685a19.411,19.411,0,0,0-19.411-19.411Z" transform="translate(-6.293 -95.884)" fill="#e7889d"/>
      <path id="Trazado_899921" data-name="Trazado 899921" d="M176.3,114.274h-37.83l1.781,17.96a15.612,15.612,0,0,0,2.656,7.271,16.31,16.31,0,1,0,28.957,0,15.612,15.612,0,0,0,2.656-7.272Z" transform="translate(-116.182 -95.884)" fill="#e16e7e"/>
      <path id="Trazado_899922" data-name="Trazado 899922" d="M192.095,10.97a10.576,10.576,0,0,0-7.824-3.47h-7.922a10.557,10.557,0,0,0-10.505,11.6l2.286,23.054a10.525,10.525,0,0,0,4.088,7.354,11.332,11.332,0,1,0,16.186,0,10.524,10.524,0,0,0,4.088-7.354L194.776,19.1a10.575,10.575,0,0,0-2.681-8.128Z" transform="translate(-139.111 -6.293)" fill="#f6ee86"/>
      <path id="Trazado_899923" data-name="Trazado 899923" d="M214.548,43.589h-7.922a4.749,4.749,0,0,0-4.726,5.217l2.286,23.053a4.749,4.749,0,0,0,4.726,4.28h3.351a4.749,4.749,0,0,0,4.726-4.28l2.286-23.053A4.749,4.749,0,0,0,214.548,43.589Z" transform="translate(-169.388 -36.574)" fill="#e7889d"/>
      <path id="Trazado_899924" data-name="Trazado 899924" d="M216.276,77.827c-8-5.238-12.8-23.813-12.206-29.6A4.745,4.745,0,0,0,201.9,52.7l2.286,23.053a4.749,4.749,0,0,0,4.726,4.28h3.351A4.748,4.748,0,0,0,216.276,77.827Z" transform="translate(-169.389 -40.47)" fill="#e16e7e"/>
      <circle id="Elipse_11701" data-name="Elipse 11701" cx="5.524" cy="5.524" r="5.524" transform="translate(35.674 45.61)" fill="#e16e7e"/>
      <path id="Trazado_899925" data-name="Trazado 899925" d="M60.061,69.538h-33a1.207,1.207,0,0,0-1.044.6A20.31,20.31,0,0,1,6.4,79.871a1.659,1.659,0,0,1-1.134-2.626A31.113,31.113,0,0,0,9.756,66.828a1.207,1.207,0,0,0-.428-1.213A18.119,18.119,0,0,1,2.414,51.334V37.8A18.051,18.051,0,0,1,8.008,24.673a1.207,1.207,0,1,0-1.672-1.741A20.444,20.444,0,0,0,0,37.8V51.334A20.509,20.509,0,0,0,7.228,67.013a28.425,28.425,0,0,1-3.945,8.849,4.073,4.073,0,0,0,2.858,6.41,22.764,22.764,0,0,0,21.6-10.319H60.061a1.207,1.207,0,0,0,0-2.414ZM45.16,5.808H37.238a5.959,5.959,0,0,0-5.927,6.544L33.6,35.4a5.936,5.936,0,0,0,5.927,5.368h3.351A5.936,5.936,0,0,0,48.8,35.4l2.286-23.053A5.959,5.959,0,0,0,45.16,5.808Zm3.524,6.305L46.4,35.167a3.53,3.53,0,0,1-3.524,3.192H39.523A3.53,3.53,0,0,1,36,35.167L33.713,12.113a3.539,3.539,0,0,1,3.525-3.891H45.16a3.539,3.539,0,0,1,3.524,3.891ZM41.2,44.4a6.731,6.731,0,1,0,6.731,6.731A6.739,6.739,0,0,0,41.2,44.4Zm0,11.048a4.317,4.317,0,1,1,4.317-4.317A4.322,4.322,0,0,1,41.2,55.452ZM61.779,17.183H56.444l.422-4.26A11.769,11.769,0,0,0,45.16,0H37.238A11.769,11.769,0,0,0,25.531,12.924l.422,4.259H20.618a20.4,20.4,0,0,0-9.354,2.239,1.207,1.207,0,0,0,1.1,2.151A18.006,18.006,0,0,1,20.618,19.6h5.575l1.624,16.381a11.825,11.825,0,0,0,3.574,7.353,12.539,12.539,0,1,0,19.615,0,11.825,11.825,0,0,0,3.574-7.353L56.2,19.6H61.78a18.225,18.225,0,0,1,18.2,18.2V51.334A18.257,18.257,0,0,1,65.45,69.168a1.207,1.207,0,1,0,.484,2.365A20.68,20.68,0,0,0,82.4,51.334V37.8A20.641,20.641,0,0,0,61.779,17.183Zm-7.316-4.5L52.178,35.74a9.257,9.257,0,0,1-3.619,6.514,1.208,1.208,0,0,0-.13,1.8,10.125,10.125,0,1,1-14.461,0,1.207,1.207,0,0,0-.13-1.8,9.259,9.259,0,0,1-3.619-6.514L27.933,12.686a9.355,9.355,0,0,1,9.3-10.272H45.16a9.354,9.354,0,0,1,9.3,10.272Z" transform="translate(0)"/>
    </g>
  </g>
</svg>
